<svg width="400" height="388" viewBox="0 0 400 388" fill="currentColor" xmlns="http://www.w3.org/2000/svg">
<path d="M200 0C87.5 0 0 87.6129 0 200.258C0 331.677 118.75 388 137.5 388C150 388 150 381.742 150 375.484V344.194C106.25 356.71 87.5 331.677 81.25 312.903C81.25 312.903 81.25 306.645 68.75 294.129C62.5 287.871 37.5 275.355 62.5 275.355C81.25 275.355 93.75 300.387 93.75 300.387C112.5 325.419 137.5 319.161 150 312.903C150 300.387 162.5 287.871 162.5 287.871C112.5 281.613 75 262.839 75 194C75 168.968 81.25 150.194 93.75 137.677C93.75 137.677 81.25 112.645 93.75 81.3548C93.75 81.3548 125 81.3548 150 106.387C168.75 93.871 231.25 93.871 250 106.387C275 81.3548 306.25 81.3548 306.25 81.3548C318.75 125.161 306.25 137.677 306.25 137.677C318.75 150.194 325 168.968 325 194C325 262.839 281.25 281.613 237.5 287.871C243.75 294.129 250 306.645 250 325.419V375.484C250 381.742 250 388 262.5 388C281.25 388 400 331.677 400 200.258C400 87.6129 312.5 0 200 0Z" fill="white"/>
</svg>
