<svg width="2500" height="1509" viewBox="0 0 2500 1509" fill="none" xmlns="http://www.w3.org/2000/svg">
<g clip-path="url(#clip0)">
<path d="M590.984 385.063H582.484V393.563V1098.12V1106.62H590.984H1066.63H1069.58H1075.13H1086.25H1137.25H1141.59L1144.14 1103.1L1375.55 783.062L1605.98 1103.09L1608.53 1106.62H1612.88H1664.86H1681.46L1671.76 1093.15L1414.39 735.856L1917.23 4.81712L1903.54 -5.23993L1595.41 388.323L1595.32 388.433L1595.24 388.546L1375.64 688.899L1160.83 388.618L1158.29 385.063H1153.92H1108.28H1103.91H1103.89V393.563V393.577L1097 398.511L1338.6 735.935L1079.37 1093.13L1075.13 1098.97V1098.12V1060.61V1052.11H1066.63H642.646V759.274H1036.23H1044.73V750.774V713.273V704.773H1036.23H642.646V439.563H1061.73H1070.23V431.063V393.563V385.063H1061.73H590.984ZM1675.01 431.063V439.563H1683.51H1683.52H1921.15V1098.1V1106.6H1929.65H1972.81H1981.31V1098.1V439.563H2219.94H2228.44V431.063V393.563V385.063H2219.94H1683.51H1675.01V393.563V431.063ZM2.07666 385.063H-6.42334V393.563V1098.12V1106.62H2.07666H45.2218H53.6963L53.7218 1098.15L55.5998 474.222L485.407 1102.92L485.509 1103.07L485.618 1103.21L792.992 1514.09L806.87 1504.28L63.0928 388.847L60.5693 385.063H56.0208H2.07666ZM2289.6 1007.79L2289.39 999.51H2281.1H2266.51H2258.01H2258V1008.01H2249.51C2249.51 1023.21 2255.04 1036.34 2265.05 1045.63C2275 1054.86 2288.73 1059.7 2304.18 1059.7C2320.49 1059.7 2334.59 1054.75 2344.61 1044.54C2354.6 1034.34 2359.5 1019.95 2359.5 1003.05V895.537V887.037H2351H2327.49H2318.99V895.537V1002.95C2318.99 1010.12 2317.2 1014.28 2315.09 1016.59C2313.09 1018.77 2309.75 1020.46 2303.98 1020.46C2299.05 1020.46 2295.57 1018.94 2293.37 1016.92C2291.22 1014.94 2289.7 1011.96 2289.6 1007.79ZM2373.24 1006.65V1015.15H2374.3C2376.86 1027.64 2383.54 1038.17 2393.5 1045.84C2405.37 1054.99 2421.38 1059.7 2439.57 1059.7C2458.86 1059.7 2475.53 1054.8 2487.55 1045.05C2499.78 1035.14 2506.42 1020.83 2506.42 1003.9C2506.42 990.712 2502.64 979.456 2493.57 970.599C2484.87 962.092 2472.14 956.65 2456.03 952.876C2456.02 952.873 2456 952.869 2455.99 952.866L2439.4 948.782L2439.36 948.771L2439.31 948.761C2429.76 946.519 2424.31 944.143 2421.35 941.824C2418.98 939.966 2418.16 938.18 2418.16 935.336C2418.16 931.367 2419.82 928.195 2423.18 925.748C2426.75 923.139 2432.58 921.191 2440.62 921.191C2455.46 921.191 2462.87 928.128 2464.22 936.752L2465.35 943.938H2472.62H2495.51H2504.47L2504 934.987C2502.33 903.632 2474.82 883.336 2440.92 883.336C2422.91 883.336 2407.09 888.244 2395.59 897.649C2383.95 907.178 2377.33 920.881 2377.33 936.925C2377.33 949.796 2381 960.947 2389.33 969.748C2397.45 978.326 2409.2 983.81 2423.73 987.222C2423.75 987.225 2423.76 987.228 2423.77 987.23L2443.23 991.948L2443.25 991.954L2443.28 991.96C2452.9 994.23 2458.64 996.796 2461.86 999.384C2464.59 1001.57 2465.59 1003.79 2465.59 1006.96C2465.59 1010.47 2463.88 1013.88 2459.88 1016.72C2455.78 1019.63 2449.42 1021.73 2441.36 1021.73C2423.07 1021.73 2414.61 1013.79 2413.46 1005.48L2412.44 998.15H2405.04H2381.74V1006.38L2373.24 1006.64V1006.65ZM2191.67 1033.61C2191.67 1046.97 2201.9 1057.78 2215.6 1057.79H2215.61C2229.43 1057.78 2239.52 1046.92 2239.52 1033.61C2239.52 1020.28 2229.44 1009.41 2215.6 1009.41C2201.89 1009.41 2191.67 1020.24 2191.67 1033.61Z" fill="white" stroke="white" stroke-width="17"/>
</g>
<defs>
<clipPath id="clip0">
<rect width="2500" height="1509" fill="white"/>
</clipPath>
</defs>
</svg>
