<svg width="916" height="642" viewBox="0 0 916 642" fill="none" xmlns="http://www.w3.org/2000/svg">
<g clip-path="url(#clip0)">
<path d="M224.492 548.043C220.633 548.043 216.803 549.414 213.852 551.793C210.9 549.414 207.07 548.043 203.211 548.043C194.594 548.043 187.841 554.423 187.841 562.566C187.841 574.068 208.455 587.641 212.589 590.242C212.972 590.488 213.412 590.606 213.852 590.606C214.282 590.606 214.712 590.493 215.095 590.256C217.63 588.691 239.863 574.626 239.863 562.566C239.863 554.423 233.109 548.043 224.492 548.043Z" fill="#D32F2F"/>
<path d="M209.416 566.96C204.559 566.96 199.744 568.743 196.117 571.822C192.49 568.743 187.675 566.96 182.813 566.96C172.371 566.96 164.194 574.673 164.194 584.524C164.194 598.887 191.719 616.641 194.854 618.613C195.242 618.864 195.677 618.982 196.117 618.982C196.547 618.982 196.978 618.868 197.361 618.632C208.753 611.604 228.039 596.504 228.039 584.529C228.039 574.673 219.863 566.96 209.416 566.96Z" fill="#F44336"/>
</g>
<g clip-path="url(#clip1)">
<path d="M131.237 511.391C152.132 511.391 169.071 494.452 169.071 473.557C169.071 452.662 152.132 435.723 131.237 435.723C110.342 435.723 93.4028 452.662 93.4028 473.557C93.4028 494.452 110.342 511.391 131.237 511.391Z" fill="#FFCA28"/>
<path d="M152.472 466.51C151.166 466.51 150.107 465.451 150.107 464.146C150.107 461.54 147.988 459.416 145.378 459.416C142.767 459.416 140.648 461.54 140.648 464.146C140.648 465.451 139.589 466.51 138.284 466.51C136.979 466.51 135.919 465.451 135.919 464.146C135.919 458.929 140.161 454.687 145.378 454.687C150.594 454.687 154.836 458.929 154.836 464.146C154.836 465.456 153.777 466.51 152.472 466.51Z" fill="#6D4C41"/>
<path d="M124.096 466.51C122.791 466.51 121.731 465.451 121.731 464.146C121.731 461.54 119.608 459.416 117.002 459.416C114.396 459.416 112.273 461.54 112.273 464.146C112.273 465.451 111.213 466.51 109.908 466.51C108.603 466.51 107.543 465.451 107.543 464.146C107.543 458.929 111.786 454.687 117.002 454.687C122.218 454.687 126.461 458.929 126.461 464.146C126.461 465.456 125.401 466.51 124.096 466.51Z" fill="#6D4C41"/>
<path d="M131.237 497.203C122.351 497.203 114.089 492.039 110.197 484.051C109.624 482.878 110.111 481.464 111.284 480.892C112.471 480.324 113.876 480.807 114.443 481.98C117.551 488.355 124.143 492.474 131.237 492.474C138.326 492.474 144.919 488.355 148.031 481.98C148.612 480.802 150.041 480.334 151.19 480.892C152.367 481.464 152.855 482.878 152.278 484.051C148.381 492.039 140.123 497.203 131.237 497.203Z" fill="#6D4C41"/>
</g>
<g clip-path="url(#clip2)">
<path d="M437.901 441.339C458.796 441.339 475.735 424.4 475.735 403.505C475.735 382.609 458.796 365.67 437.901 365.67C417.005 365.67 400.066 382.609 400.066 403.505C400.066 424.4 417.005 441.339 437.901 441.339Z" fill="#FFC107"/>
<path d="M423.713 384.587C418.496 384.587 414.254 388.83 414.254 394.046C414.254 399.262 418.496 403.505 423.713 403.505C428.929 403.505 433.171 399.262 433.171 394.046C433.171 388.83 428.929 384.587 423.713 384.587Z" fill="#FAFAFA"/>
<path d="M423.713 389.317C421.102 389.317 418.983 391.435 418.983 394.046C418.983 396.657 421.102 398.775 423.713 398.775C426.323 398.775 428.442 396.657 428.442 394.046C428.442 391.435 426.323 389.317 423.713 389.317Z" fill="#5D4037"/>
<path d="M452.088 384.587C446.872 384.587 442.63 388.83 442.63 394.046C442.63 399.262 446.872 403.505 452.088 403.505C457.305 403.505 461.547 399.262 461.547 394.046C461.547 388.83 457.305 384.587 452.088 384.587Z" fill="#FAFAFA"/>
<path d="M452.088 389.317C449.482 389.317 447.359 391.435 447.359 394.046C447.359 396.657 449.482 398.775 452.088 398.775C454.694 398.775 456.817 396.657 456.817 394.046C456.817 391.435 454.694 389.317 452.088 389.317Z" fill="#5D4037"/>
<path d="M449.724 422.422H426.077C424.772 422.422 423.713 421.362 423.713 420.057C423.713 418.752 424.772 417.692 426.077 417.692H449.724C451.029 417.692 452.088 418.752 452.088 420.057C452.088 421.362 451.029 422.422 449.724 422.422Z" fill="#5D4037"/>
</g>
<g clip-path="url(#clip3)">
<path d="M523.767 419.318C544.662 419.318 561.601 402.379 561.601 381.484C561.601 360.589 544.662 343.65 523.767 343.65C502.871 343.65 485.932 360.589 485.932 381.484C485.932 402.379 502.871 419.318 523.767 419.318Z" fill="#FFCA28"/>
<path d="M523.767 405.13C517.448 405.13 511.513 402.666 507.044 398.202C506.122 397.28 506.122 395.781 507.044 394.858C507.966 393.936 509.465 393.936 510.388 394.858C517.533 402.009 529.99 402.009 537.141 394.858C538.063 393.936 539.562 393.936 540.485 394.858C541.407 395.781 541.407 397.28 540.485 398.202C536.02 402.666 530.085 405.13 523.767 405.13Z" fill="#6D4C41"/>
<path d="M514.308 376.755H504.849C503.544 376.755 502.485 375.695 502.485 374.39C502.485 373.085 503.544 372.025 504.849 372.025H514.308C515.613 372.025 516.673 373.085 516.673 374.39C516.673 375.695 515.613 376.755 514.308 376.755Z" fill="#6D4C41"/>
<path d="M537.954 376.755C540.566 376.755 542.684 374.637 542.684 372.025C542.684 369.414 540.566 367.296 537.954 367.296C535.342 367.296 533.225 369.414 533.225 372.025C533.225 374.637 535.342 376.755 537.954 376.755Z" fill="#6D4C41"/>
</g>
<g clip-path="url(#clip4)">
<path d="M535.004 561.956C521.918 554.347 521.989 535.846 521.994 535.628V514.347C521.994 501.308 511.386 490.7 498.347 490.7C485.309 490.7 474.701 501.308 474.701 514.347V535.628C474.701 535.643 474.701 535.652 474.701 535.666C474.701 535.851 474.824 554.319 461.691 561.961C460.768 562.5 460.319 563.593 460.598 564.624C460.872 565.655 461.809 566.369 462.878 566.369H472.88C474.384 566.369 475.86 566.085 477.274 565.522L483.89 562.869C485.592 562.193 487.465 562.198 489.158 562.869L493.958 564.789C496.791 565.924 499.908 565.924 502.736 564.789L507.536 562.869C509.229 562.198 511.102 562.188 512.805 562.869L519.421 565.517C520.825 566.08 522.301 566.369 523.81 566.369H533.817C534.886 566.369 535.822 565.655 536.096 564.619C536.38 563.588 535.926 562.5 535.004 561.956Z" fill="#CFD8DC"/>
<path d="M505.44 523.805C501.528 523.805 498.346 520.622 498.346 516.711C498.346 512.8 501.528 509.617 505.44 509.617C509.351 509.617 512.533 512.8 512.533 516.711C512.533 520.622 509.351 523.805 505.44 523.805ZM505.44 514.347C504.139 514.347 503.075 515.406 503.075 516.711C503.075 518.017 504.139 519.076 505.44 519.076C506.74 519.076 507.804 518.017 507.804 516.711C507.804 515.406 506.74 514.347 505.44 514.347Z" fill="#37474F"/>
<path d="M486.617 519.076C485.312 519.076 484.229 518.017 484.229 516.711C484.229 515.406 485.264 514.347 486.57 514.347H486.617C487.922 514.347 488.982 515.406 488.982 516.711C488.982 518.017 487.922 519.076 486.617 519.076Z" fill="#37474F"/>
<path d="M505.44 528.535H491.252C489.947 528.535 488.887 529.594 488.887 530.899V542.722C488.887 547.939 493.129 552.181 498.346 552.181C503.562 552.181 507.804 547.939 507.804 542.722V530.899C507.804 529.594 506.745 528.535 505.44 528.535Z" fill="#D32F2F"/>
<path d="M510.169 533.264H486.523C485.217 533.264 484.158 532.205 484.158 530.899C484.158 529.594 485.217 528.535 486.523 528.535H510.169C511.474 528.535 512.534 529.594 512.534 530.899C512.534 532.205 511.474 533.264 510.169 533.264Z" fill="#37474F"/>
</g>
<g clip-path="url(#clip5)">
<path d="M598.105 473.557C619 473.557 635.939 456.618 635.939 435.723C635.939 414.827 619 397.889 598.105 397.889C577.209 397.889 560.271 414.827 560.271 435.723C560.271 456.618 577.209 473.557 598.105 473.557Z" fill="#FFCA28"/>
<path d="M565.388 416.806C562.153 422.377 560.271 428.827 560.271 435.723H635.939C635.939 428.827 634.057 422.377 630.822 416.806H565.388Z" fill="#263238"/>
<path d="M583.917 430.993C586.529 430.993 588.646 428.876 588.646 426.264C588.646 423.652 586.529 421.535 583.917 421.535C581.305 421.535 579.188 423.652 579.188 426.264C579.188 428.876 581.305 430.993 583.917 430.993Z" fill="#FAFAFA"/>
<path d="M612.293 430.993C614.904 430.993 617.022 428.876 617.022 426.264C617.022 423.652 614.904 421.535 612.293 421.535C609.681 421.535 607.563 423.652 607.563 426.264C607.563 428.876 609.681 430.993 612.293 430.993Z" fill="#FAFAFA"/>
<path d="M598.105 459.369C596.799 459.369 595.74 458.31 595.74 457.004C595.74 455.699 596.799 454.64 598.105 454.64C603.189 454.64 607.932 452.672 611.46 449.097C612.378 448.175 613.872 448.161 614.804 449.078C615.731 449.991 615.74 451.49 614.823 452.422C610.405 456.905 604.465 459.369 598.105 459.369Z" fill="#6D4C41"/>
</g>
<g clip-path="url(#clip6)">
<path d="M639.338 393.603C660.233 393.603 677.172 376.664 677.172 355.769C677.172 334.873 660.233 317.934 639.338 317.934C618.443 317.934 601.504 334.873 601.504 355.769C601.504 376.664 618.443 393.603 639.338 393.603Z" fill="#FFCA28"/>
<path d="M646.432 360.498H632.244C630.939 360.498 629.88 361.557 629.88 362.862V369.956C629.88 372.567 632.003 374.686 634.609 374.686H644.067C646.678 374.686 648.797 372.567 648.797 369.956V362.862C648.797 361.557 647.737 360.498 646.432 360.498Z" fill="#FAFAFA"/>
<path d="M651.161 365.227H627.515C626.21 365.227 625.15 364.168 625.15 362.862C625.15 361.557 626.21 360.498 627.515 360.498H651.161C652.466 360.498 653.526 361.557 653.526 362.862C653.526 364.168 652.466 365.227 651.161 365.227Z" fill="#6D4C41"/>
<path d="M625.15 351.039C627.762 351.039 629.879 348.922 629.879 346.31C629.879 343.698 627.762 341.581 625.15 341.581C622.538 341.581 620.421 343.698 620.421 346.31C620.421 348.922 622.538 351.039 625.15 351.039Z" fill="#6D4C41"/>
<path d="M653.526 351.039C656.138 351.039 658.255 348.922 658.255 346.31C658.255 343.698 656.138 341.581 653.526 341.581C650.914 341.581 648.797 343.698 648.797 346.31C648.797 348.922 650.914 351.039 653.526 351.039Z" fill="#6D4C41"/>
</g>
<g clip-path="url(#clip7)">
<path d="M729.49 471.488C750.385 471.488 767.324 454.549 767.324 433.654C767.324 412.759 750.385 395.82 729.49 395.82C708.594 395.82 691.656 412.759 691.656 433.654C691.656 454.549 708.594 471.488 729.49 471.488Z" fill="#FFCA28"/>
<path d="M715.302 428.924C717.914 428.924 720.031 426.807 720.031 424.195C720.031 421.583 717.914 419.466 715.302 419.466C712.69 419.466 710.573 421.583 710.573 424.195C710.573 426.807 712.69 428.924 715.302 428.924Z" fill="#6D4C41"/>
<path d="M743.678 428.924C746.289 428.924 748.407 426.807 748.407 424.195C748.407 421.583 746.289 419.466 743.678 419.466C741.066 419.466 738.948 421.583 738.948 424.195C738.948 426.807 741.066 428.924 743.678 428.924Z" fill="#6D4C41"/>
<path d="M741.313 452.571H717.666C716.361 452.571 715.302 451.511 715.302 450.206C715.302 448.901 716.361 447.842 717.666 447.842H741.313C742.618 447.842 743.677 448.901 743.677 450.206C743.677 451.511 742.618 452.571 741.313 452.571Z" fill="#6D4C41"/>
<path d="M722.396 457.3C721.09 457.3 720.031 456.241 720.031 454.935V445.477C720.031 444.172 721.09 443.112 722.396 443.112C723.701 443.112 724.76 444.172 724.76 445.477V454.935C724.76 456.241 723.701 457.3 722.396 457.3Z" fill="#6D4C41"/>
<path d="M729.49 457.3C728.184 457.3 727.125 456.241 727.125 454.935V445.477C727.125 444.172 728.184 443.112 729.49 443.112C730.795 443.112 731.854 444.172 731.854 445.477V454.935C731.854 456.241 730.795 457.3 729.49 457.3Z" fill="#6D4C41"/>
<path d="M736.583 457.3C735.278 457.3 734.219 456.241 734.219 454.935V445.477C734.219 444.172 735.278 443.112 736.583 443.112C737.889 443.112 738.948 444.172 738.948 445.477V454.935C738.948 456.241 737.889 457.3 736.583 457.3Z" fill="#6D4C41"/>
<path d="M753.424 452.282C751.32 450.178 744.614 448.513 741.828 447.894C741.043 447.719 740.215 447.96 739.643 448.532C739.071 449.104 738.83 449.927 739.005 450.717C739.624 453.502 741.284 460.209 743.393 462.313C744.774 463.694 746.595 464.385 748.411 464.385C750.227 464.385 752.048 463.694 753.429 462.313C756.191 459.551 756.191 455.049 753.424 452.282Z" fill="#6D4C41"/>
</g>
<g clip-path="url(#clip8)">
<rect width="0.14779" height="0.14779" transform="translate(706.73 508.287)" fill="white"/>
<path d="M706.804 508.435C706.845 508.435 706.878 508.402 706.878 508.361C706.878 508.32 706.845 508.287 706.804 508.287C706.763 508.287 706.73 508.32 706.73 508.361C706.73 508.402 706.763 508.435 706.804 508.435Z" fill="#FFCA28"/>
<path d="M706.805 508.394C706.808 508.392 706.811 508.39 706.812 508.387C706.814 508.385 706.813 508.383 706.812 508.381C706.805 508.374 706.797 508.371 706.79 508.372C706.787 508.372 706.785 508.374 706.785 508.377C706.786 508.379 706.788 508.381 706.79 508.381C706.794 508.38 706.798 508.382 706.802 508.385C706.799 508.387 706.795 508.388 706.789 508.389C706.787 508.389 706.785 508.391 706.785 508.394C706.785 508.396 706.787 508.398 706.789 508.398C706.794 508.399 706.798 508.4 706.801 508.403C706.797 508.405 706.793 508.407 706.79 508.407C706.787 508.408 706.785 508.41 706.785 508.412C706.786 508.415 706.788 508.417 706.79 508.417C706.79 508.417 706.79 508.417 706.79 508.417C706.798 508.416 706.805 508.413 706.812 508.406C706.813 508.405 706.813 508.404 706.813 508.403C706.813 508.402 706.813 508.401 706.812 508.4C706.81 508.397 706.807 508.395 706.805 508.394Z" fill="#6D4C41"/>
<path d="M706.832 508.324C706.821 508.324 706.813 508.333 706.813 508.343C706.813 508.346 706.815 508.348 706.818 508.348C706.82 508.348 706.822 508.346 706.822 508.343C706.822 508.338 706.827 508.334 706.832 508.334C706.837 508.334 706.841 508.338 706.841 508.343C706.841 508.346 706.843 508.348 706.846 508.348C706.849 508.348 706.851 508.346 706.851 508.343C706.851 508.333 706.842 508.324 706.832 508.324Z" fill="#6D4C41"/>
<path d="M706.791 508.348C706.793 508.348 706.795 508.346 706.795 508.343C706.795 508.333 706.787 508.324 706.776 508.324C706.766 508.324 706.758 508.333 706.758 508.343C706.758 508.346 706.76 508.348 706.762 508.348C706.765 508.348 706.767 508.346 706.767 508.343C706.767 508.338 706.771 508.334 706.776 508.334C706.782 508.334 706.786 508.338 706.786 508.343C706.786 508.346 706.788 508.348 706.791 508.348Z" fill="#6D4C41"/>
<path d="M706.86 508.38C706.857 508.38 706.853 508.381 706.85 508.383C706.847 508.381 706.843 508.38 706.84 508.38C706.83 508.38 706.822 508.387 706.822 508.397C706.822 508.407 706.835 508.417 706.847 508.425C706.848 508.426 706.849 508.426 706.85 508.426C706.851 508.426 706.852 508.426 706.852 508.425C706.865 508.417 706.878 508.407 706.878 508.397C706.878 508.387 706.87 508.38 706.86 508.38Z" fill="#F44336"/>
</g>
<g clip-path="url(#clip9)">
<path d="M813.256 346.726C812.807 346.163 812.126 345.832 811.403 345.832H763.448C762.729 345.832 762.048 346.159 761.594 346.726C756.836 352.713 754.32 359.878 754.32 367.445C754.32 385.695 769.17 400.55 787.425 400.55C805.675 400.55 820.53 385.695 820.53 367.445C820.53 359.878 818.014 352.718 813.256 346.726Z" fill="#FFCA28"/>
<path d="M824.654 335.126C823.921 334.313 822.729 334.114 821.774 334.629C816.685 337.372 811.379 339.477 805.973 340.91C804.706 331.47 800.114 324.882 794.519 324.882C791.871 324.882 789.402 326.33 787.425 328.964C785.448 326.33 782.98 324.882 780.331 324.882C774.703 324.882 770.083 331.541 768.825 341.075C763.717 339.761 758.761 337.727 753.091 334.629C752.126 334.105 750.929 334.303 750.201 335.121C749.468 335.93 749.383 337.141 750.002 338.044C758.539 350.529 772.528 357.987 787.425 357.987C802.322 357.987 816.311 350.529 824.848 338.039C825.463 337.141 825.382 335.935 824.654 335.126Z" fill="#6D4C41"/>
<path d="M773.237 369.81C775.849 369.81 777.967 367.692 777.967 365.081C777.967 362.469 775.849 360.351 773.237 360.351C770.625 360.351 768.508 362.469 768.508 365.081C768.508 367.692 770.625 369.81 773.237 369.81Z" fill="#6D4C41"/>
<path d="M801.613 369.81C804.225 369.81 806.342 367.692 806.342 365.081C806.342 362.469 804.225 360.351 801.613 360.351C799.001 360.351 796.884 362.469 796.884 365.081C796.884 367.692 799.001 369.81 801.613 369.81Z" fill="#6D4C41"/>
<path d="M799.248 388.727C798.662 388.727 798.075 388.509 797.616 388.074C791.899 382.636 782.946 382.636 777.229 388.074C776.287 388.968 774.788 388.944 773.885 387.989C772.986 387.043 773.02 385.544 773.97 384.645C781.518 377.466 793.332 377.466 800.875 384.645C801.821 385.544 801.859 387.043 800.96 387.989C800.497 388.481 799.872 388.727 799.248 388.727Z" fill="#6D4C41"/>
</g>
<g clip-path="url(#clip10)">
<path d="M644.806 591.197C665.701 591.197 682.64 574.258 682.64 553.363C682.64 532.468 665.701 515.529 644.806 515.529C623.911 515.529 606.972 532.468 606.972 553.363C606.972 574.258 623.911 591.197 644.806 591.197Z" fill="#FFCA28"/>
<path d="M658.947 534.493H630.571C624.054 534.493 618.748 539.8 618.748 546.317C618.748 552.834 624.054 558.14 630.571 558.14C634.137 558.14 637.476 556.565 639.727 553.822C639.784 553.751 639.84 553.675 639.892 553.595L644.759 547.679L649.62 553.595C649.672 553.675 649.725 553.751 649.786 553.827C652.047 556.57 655.381 558.144 658.947 558.144C665.468 558.144 670.77 552.838 670.77 546.321C670.77 539.804 665.464 534.493 658.947 534.493Z" fill="#263238"/>
<path d="M644.759 577.057C643.454 577.057 642.394 575.997 642.394 574.692C642.394 573.387 643.454 572.328 644.759 572.328C649.843 572.328 654.586 570.36 658.114 566.785C659.032 565.863 660.526 565.848 661.458 566.766C662.385 567.679 662.394 569.178 661.477 570.11C657.055 574.593 651.115 577.057 644.759 577.057Z" fill="#6D4C41"/>
</g>
<g clip-path="url(#clip11)">
<path d="M782.251 590.459C803.146 590.459 820.085 573.52 820.085 552.624C820.085 531.729 803.146 514.79 782.251 514.79C761.355 514.79 744.417 531.729 744.417 552.624C744.417 573.52 761.355 590.459 782.251 590.459Z" fill="#FFCA28"/>
<path d="M768.063 554.989C770.675 554.989 772.792 552.872 772.792 550.26C772.792 547.648 770.675 545.531 768.063 545.531C765.451 545.531 763.333 547.648 763.333 550.26C763.333 552.872 765.451 554.989 768.063 554.989Z" fill="#6D4C41"/>
<path d="M796.438 554.989C799.05 554.989 801.168 552.872 801.168 550.26C801.168 547.648 799.05 545.531 796.438 545.531C793.827 545.531 791.709 547.648 791.709 550.26C791.709 552.872 793.827 554.989 796.438 554.989Z" fill="#6D4C41"/>
<path d="M794.074 571.541H770.428C769.122 571.541 768.063 570.482 768.063 569.177C768.063 567.872 769.122 566.812 770.428 566.812H794.074C795.379 566.812 796.439 567.872 796.439 569.177C796.439 570.482 795.379 571.541 794.074 571.541Z" fill="#6D4C41"/>
<path d="M747.202 538.437H817.299C815.067 532.941 811.577 528.108 807.193 524.249H757.309C752.925 528.108 749.434 532.941 747.202 538.437Z" fill="#6D4C41"/>
<path d="M815.181 535.178C814.452 533.4 811.534 533.4 810.801 535.178C809.652 537.992 805.897 547.403 805.897 550.26C805.897 554.171 809.08 557.354 812.991 557.354C816.902 557.354 820.085 554.171 820.085 550.26C820.085 547.403 816.33 537.992 815.181 535.178Z" fill="#2196F3"/>
</g>
<g clip-path="url(#clip12)">
<path d="M368.292 490.257L380.115 490.257C384.026 490.257 387.209 487.074 387.209 483.163L387.209 473.705C387.209 467.188 392.515 461.881 399.032 461.881C402.943 461.881 406.126 465.064 406.126 468.975L406.126 475.559C406.126 478.557 406.94 481.503 408.486 484.076L410.127 486.809C411.404 488.938 413.731 490.257 416.209 490.257L417.949 490.257C419.255 490.257 420.314 491.316 420.314 492.622L420.314 523.362C420.314 524.194 419.879 524.965 419.165 525.391L410.151 530.801C407.947 532.125 405.426 532.82 402.854 532.82L373.594 532.82C371.106 532.82 368.666 531.808 366.906 530.049L361.605 524.748C359.846 522.988 358.833 520.548 358.833 518.06L358.833 499.716C358.833 494.499 363.076 490.257 368.292 490.257Z" fill="#90CAF9"/>
<path d="M417.949 490.257L432.137 490.257C433.442 490.257 434.502 491.316 434.502 492.622L434.502 530.456C434.502 531.761 433.442 532.82 432.137 532.82L417.949 532.82C416.644 532.82 415.585 531.761 415.585 530.456L415.585 492.622C415.585 491.316 416.644 490.257 417.949 490.257Z" fill="#1976D2"/>
</g>
<g clip-path="url(#clip13)">
<path d="M682.64 279.509C703.535 279.509 720.474 262.57 720.474 241.675C720.474 220.78 703.535 203.841 682.64 203.841C661.745 203.841 644.806 220.78 644.806 241.675C644.806 262.57 661.745 279.509 682.64 279.509Z" fill="#FFCA28"/>
<path d="M718.11 236.946H647.171C645.865 236.946 644.806 235.886 644.806 234.581C644.806 233.276 645.865 232.216 647.171 232.216H718.11C719.415 232.216 720.474 233.276 720.474 234.581C720.474 235.886 719.415 236.946 718.11 236.946Z" fill="#263238"/>
<path d="M696.828 244.04C702.052 244.04 706.286 239.805 706.286 234.581C706.286 229.357 702.052 225.123 696.828 225.123C691.604 225.123 687.369 229.357 687.369 234.581C687.369 239.805 691.604 244.04 696.828 244.04Z" fill="#03A9F4"/>
<path d="M696.828 246.404C690.306 246.404 685.005 241.098 685.005 234.581C685.005 228.064 690.306 222.758 696.828 222.758C703.349 222.758 708.651 228.064 708.651 234.581C708.651 241.098 703.349 246.404 696.828 246.404ZM696.828 227.487C692.917 227.487 689.734 230.67 689.734 234.581C689.734 238.492 692.917 241.675 696.828 241.675C700.739 241.675 703.922 238.492 703.922 234.581C703.922 230.67 700.739 227.487 696.828 227.487Z" fill="#263238"/>
<path d="M668.452 244.04C673.676 244.04 677.911 239.805 677.911 234.581C677.911 229.357 673.676 225.123 668.452 225.123C663.228 225.123 658.994 229.357 658.994 234.581C658.994 239.805 663.228 244.04 668.452 244.04Z" fill="#03A9F4"/>
<path d="M668.452 246.404C661.935 246.404 656.629 241.098 656.629 234.581C656.629 228.064 661.935 222.758 668.452 222.758C674.969 222.758 680.275 228.064 680.275 234.581C680.275 241.098 674.969 246.404 668.452 246.404ZM668.452 227.487C664.541 227.487 661.358 230.67 661.358 234.581C661.358 238.492 664.541 241.675 668.452 241.675C672.363 241.675 675.546 238.492 675.546 234.581C675.546 230.67 672.363 227.487 668.452 227.487Z" fill="#263238"/>
<path d="M682.64 260.592C677.589 260.592 672.836 258.625 669.261 255.049C668.339 254.127 668.339 252.628 669.261 251.706C670.183 250.784 671.682 250.784 672.605 251.706C677.968 257.064 687.313 257.064 692.671 251.706C693.593 250.784 695.092 250.784 696.014 251.706C696.937 252.628 696.937 254.127 696.014 255.049C692.444 258.625 687.691 260.592 682.64 260.592Z" fill="#6D4C41"/>
</g>
<g clip-path="url(#clip14)">
<path d="M536.202 295.766C557.097 295.766 574.036 278.827 574.036 257.932C574.036 237.037 557.097 220.098 536.202 220.098C515.307 220.098 498.368 237.037 498.368 257.932C498.368 278.827 515.307 295.766 536.202 295.766Z" fill="#FFCA28"/>
<path d="M552.75 257.894C552.258 257.894 551.761 257.743 551.336 257.426L541.858 250.351C541.262 249.906 540.907 249.206 540.907 248.459C540.907 247.717 541.253 247.012 541.849 246.567L551.293 239.455C552.329 238.67 553.809 238.873 554.603 239.923C555.388 240.968 555.18 242.448 554.135 243.233L547.207 248.45L554.159 253.638C555.209 254.423 555.422 255.903 554.641 256.948C554.183 257.568 553.468 257.894 552.75 257.894Z" fill="#6D4C41"/>
<path d="M519.649 257.97C518.931 257.97 518.221 257.643 517.758 257.029C516.973 255.988 517.181 254.503 518.226 253.718L525.15 248.502L518.198 243.314C517.152 242.529 516.935 241.048 517.715 240.003C518.496 238.963 519.981 238.741 521.026 239.521L530.498 246.596C531.094 247.04 531.444 247.74 531.449 248.488C531.449 249.23 531.104 249.935 530.508 250.379L521.068 257.492C520.643 257.814 520.141 257.97 519.649 257.97Z" fill="#6D4C41"/>
<path d="M524.402 272.148C523.097 272.148 522.038 271.093 522.038 269.788C522.038 268.483 523.092 267.424 524.398 267.419L548.044 267.362H548.049C549.349 267.362 550.409 268.417 550.413 269.722C550.418 271.027 549.359 272.087 548.054 272.091L524.402 272.148C524.407 272.148 524.407 272.148 524.402 272.148Z" fill="#6D4C41"/>
<path d="M555.195 292.176C555.19 287.736 553.062 283.493 549.496 280.84C547.122 279.067 545.703 276.243 545.693 273.283L545.689 269.736C545.689 269.107 545.438 268.506 544.993 268.062C544.549 267.627 543.948 267.376 543.324 267.376H543.319L529.132 267.404C528.503 267.404 527.902 267.66 527.457 268.1C527.018 268.544 526.767 269.145 526.767 269.774L526.776 273.321C526.781 276.286 525.376 279.119 523.012 280.902C519.465 283.574 517.351 287.825 517.36 292.262V293.444C517.36 294.073 517.611 294.673 518.056 295.118C518.5 295.558 519.101 295.808 519.725 295.808H519.73L552.835 295.733C553.464 295.733 554.064 295.477 554.509 295.038C554.953 294.598 555.199 293.988 555.199 293.363L555.195 292.176Z" fill="#4CAF50"/>
</g>
<g clip-path="url(#clip15)">
<path d="M448.352 141.895C446.506 140.049 446.506 137.052 448.352 135.206C450.198 133.36 453.194 133.36 455.04 135.206L460.057 140.223L456.712 136.878C454.873 135.039 454.873 132.029 456.712 130.19C458.552 128.351 461.561 128.351 463.401 130.19L480.121 146.911C483.8 150.589 483.8 156.609 480.121 160.287L478.449 161.959L465.14 175.269C464.049 176.359 462.498 176.847 460.983 176.583L432.779 171.647C430.17 171.379 428.298 169.039 428.632 166.43C428.9 163.822 431.24 161.949 433.849 162.284L443.035 163.33L418.255 138.55C416.416 136.711 416.416 133.702 418.255 131.862C420.095 130.023 423.104 130.023 424.943 131.862L446.68 153.599L439.992 146.911C438.146 145.065 438.146 142.068 439.992 140.222C441.838 138.377 444.834 138.377 446.68 140.222L451.696 145.239" fill="#FFCA28"/>
<path d="M466.745 187.04L460.057 180.352C459.134 179.429 459.05 178.014 459.869 177.195L483.649 153.415C484.472 152.592 485.886 152.676 486.809 153.599L493.497 160.287C494.42 161.21 494.504 162.625 493.685 163.444L469.905 187.224C469.082 188.046 467.668 187.963 466.745 187.04Z" fill="#263238"/>
</g>
<g clip-path="url(#clip16)">
<path d="M296.614 503.41C317.509 503.41 334.448 486.471 334.448 465.576C334.448 444.681 317.509 427.742 296.614 427.742C275.719 427.742 258.78 444.681 258.78 465.576C258.78 486.471 275.719 503.41 296.614 503.41Z" fill="#FFCA28"/>
<path d="M323.514 471.242C323.069 470.651 322.369 470.305 321.632 470.305H271.596C270.854 470.305 270.158 470.651 269.714 471.242C269.265 471.833 269.118 472.594 269.321 473.313C272.741 485.463 283.963 493.952 296.614 493.952C309.265 493.952 320.487 485.463 323.906 473.313C324.105 472.594 323.963 471.833 323.514 471.242Z" fill="#FAFAFA"/>
<path d="M310.802 460.847C313.414 460.847 315.531 458.73 315.531 456.118C315.531 453.506 313.414 451.388 310.802 451.388C308.19 451.388 306.073 453.506 306.073 456.118C306.073 458.73 308.19 460.847 310.802 460.847Z" fill="#6D4C41"/>
<path d="M319.125 435.243C317.716 434.193 316.255 433.209 314.703 432.363L289.629 447.118C283.646 446.082 277.404 446.933 271.889 449.757C271.1 450.164 270.603 450.977 270.603 451.861C270.603 453.744 271 455.541 271.714 457.172L258.803 465.151C258.799 465.292 258.78 465.43 258.78 465.576C258.78 467.25 258.926 468.887 259.139 470.499L274.367 461.088C276.964 463.826 280.657 465.576 284.791 465.576C292.613 465.576 298.979 459.423 298.979 451.861C298.979 450.972 298.482 450.164 297.692 449.757C297.092 449.449 296.463 449.213 295.848 448.948L319.097 435.266C319.106 435.262 319.116 435.247 319.125 435.243Z" fill="#263238"/>
</g>
<g clip-path="url(#clip17)">
<path d="M200.107 312.658C196.749 310.719 167.2 293.987 162.613 301.932L166.954 304.439C169.859 304.041 180.909 307.035 197.742 316.754C214.576 326.472 222.693 334.545 223.802 337.26L228.143 339.766C232.731 331.821 203.466 314.597 200.107 312.658Z" fill="#F06292"/>
<path d="M162.273 378.189C180.369 388.636 203.508 382.436 213.955 364.34C224.403 346.245 218.203 323.106 200.107 312.658C182.011 302.21 158.872 308.41 148.425 326.506C137.977 344.602 144.177 367.741 162.273 378.189Z" fill="#FFCA28"/>
<path d="M171.268 334.234C173.53 335.54 176.422 334.765 177.728 332.503C179.034 330.241 178.259 327.348 175.997 326.042C173.735 324.736 170.843 325.511 169.537 327.773C168.231 330.035 169.006 332.928 171.268 334.234Z" fill="#6D4C41"/>
<path d="M195.842 348.421C198.104 349.727 200.996 348.952 202.302 346.69C203.608 344.428 202.833 341.536 200.571 340.23C198.309 338.924 195.417 339.699 194.111 341.961C192.805 344.223 193.58 347.115 195.842 348.421Z" fill="#6D4C41"/>
<path d="M169.367 365.902C163.895 362.742 159.987 357.641 158.349 351.54C158.011 350.28 158.761 348.982 160.021 348.644C161.28 348.307 162.579 349.057 162.916 350.316C165.53 360.082 176.318 366.31 186.086 363.693C187.345 363.355 188.644 364.105 188.981 365.365C189.319 366.625 188.569 367.923 187.309 368.26C181.211 369.895 174.839 369.061 169.367 365.902Z" fill="#6D4C41"/>
<path d="M228.143 339.766C223.556 347.712 194.007 330.98 190.649 329.041C187.29 327.102 158.025 309.878 162.613 301.932L166.954 304.439C168.062 307.154 176.18 315.226 193.013 324.945C209.846 334.664 220.896 337.657 223.802 337.26L228.143 339.766Z" fill="#F06292"/>
</g>
<g clip-path="url(#clip18)">
<path d="M332.379 553.363C314.124 553.363 299.274 568.213 299.274 586.468C299.274 603.607 313.173 629.032 332.379 629.032C351.585 629.032 365.484 603.607 365.484 586.468C365.484 568.213 350.629 553.363 332.379 553.363Z" fill="#8BC34A"/>
<path d="M356.002 579.038C355.917 578.419 355.581 577.861 355.079 577.482C354.583 577.104 353.954 576.953 353.33 577.033C342.911 578.523 335.642 588.208 337.132 598.622C337.302 599.805 338.314 600.656 339.468 600.656C339.577 600.656 339.695 600.646 339.804 600.632C344.85 599.913 349.319 597.265 352.374 593.188C355.434 589.112 356.721 584.089 356.002 579.038Z" fill="#263238"/>
<path d="M311.433 577.033C310.156 576.858 308.941 577.747 308.756 579.038C308.038 584.085 309.324 589.112 312.384 593.188C315.439 597.265 319.908 599.909 324.954 600.632C325.063 600.646 325.176 600.656 325.285 600.656C326.444 600.656 327.456 599.805 327.626 598.622C328.345 593.576 327.059 588.554 323.999 584.472C320.944 580.396 316.479 577.757 311.433 577.033Z" fill="#263238"/>
</g>
<g clip-path="url(#clip19)">
<path d="M346.529 349.814C328.397 364.872 302.074 364.872 283.937 349.814C299.893 342.801 330.582 342.805 346.529 349.814Z" fill="#6D4C41"/>
<path d="M336.517 341.888H293.954C292.648 341.888 291.589 343.231 291.589 344.536C291.589 348.447 294.772 351.63 298.683 351.63H331.788C335.699 351.63 338.882 348.447 338.882 344.536V344.252C338.882 342.947 337.822 341.888 336.517 341.888Z" fill="#FAFAFA"/>
<path d="M352.284 347.501L335.055 332.075C332.194 329.554 328.222 327.984 324.694 327.984C321.482 327.984 317.973 329.265 315.235 331.356C312.497 329.265 308.983 327.984 305.777 327.984C302.244 327.984 298.276 329.554 295.405 332.089L278.191 347.506C277.548 348.078 277.273 348.949 277.458 349.786C281.459 367.577 296.994 380.006 315.235 380.006C333.471 380.006 349.012 367.577 353.013 349.786C353.197 348.949 352.923 348.078 352.284 347.501ZM283.937 349.814C299.893 342.801 330.582 342.805 346.529 349.814C328.397 364.872 302.074 364.872 283.937 349.814Z" fill="#F44336"/>
</g>
<g clip-path="url(#clip20)">
<path d="M37.8341 604.203C58.7294 604.203 75.6683 587.264 75.6683 566.369C75.6683 545.474 58.7294 528.535 37.8341 528.535C16.9389 528.535 0 545.474 0 566.369C0 587.264 16.9389 604.203 37.8341 604.203Z" fill="#FFCA28"/>
<path d="M64.7342 572.034C64.2896 571.443 63.5897 571.098 62.8519 571.098H12.8163C12.0738 571.098 11.3786 571.443 10.934 572.034C10.4847 572.626 10.3381 573.387 10.5415 574.106C13.9607 586.255 25.1833 594.744 37.8341 594.744C50.4849 594.744 61.7074 586.255 65.1267 574.106C65.3253 573.387 65.1834 572.626 64.7342 572.034Z" fill="#FAFAFA"/>
<path d="M27.9028 547.452C26.4036 547.452 24.9139 547.877 23.6464 548.639C22.379 547.877 20.8892 547.452 19.3901 547.452C15.1479 547.452 11.8232 550.606 11.8232 554.64C11.8232 559.034 17.2808 562.812 22.3932 566.009C22.7762 566.25 23.2113 566.369 23.6464 566.369C24.072 566.369 24.5024 566.255 24.8808 566.019C30.3809 562.656 35.4696 558.949 35.4696 554.64C35.4696 550.606 32.1449 547.452 27.9028 547.452Z" fill="#F44336"/>
<path d="M58.643 547.452C57.1438 547.452 55.6541 547.877 54.3866 548.639C53.1145 547.877 51.6295 547.452 50.1303 547.452C45.8834 547.452 42.5635 550.606 42.5635 554.64C42.5635 559.038 48.0163 562.817 53.1334 566.009C53.5165 566.25 53.9516 566.369 54.3866 566.369C54.817 566.369 55.2426 566.255 55.621 566.023C61.1211 562.656 66.2098 558.949 66.2098 554.64C66.2098 550.606 62.8899 547.452 58.643 547.452Z" fill="#F44336"/>
</g>
<g clip-path="url(#clip21)">
<path d="M434.354 631.544C455.249 631.544 472.188 614.605 472.188 593.71C472.188 572.815 455.249 555.876 434.354 555.876C413.458 555.876 396.52 572.815 396.52 593.71C396.52 614.605 413.458 631.544 434.354 631.544Z" fill="#FFCA28"/>
<path d="M431.989 622.085C430.774 622.085 429.738 621.154 429.634 619.919C429.525 618.619 430.49 617.47 431.795 617.366C433.753 617.2 435.773 616.377 437.816 614.911C436.08 613.653 434.084 612.911 431.691 612.608C430.509 612.457 429.62 611.445 429.624 610.248C429.629 609.052 430.528 608.049 431.715 607.912C434.619 607.581 436.742 606.871 438.128 605.769C436.094 604.214 434.127 603.547 432.23 603.745C430.901 603.868 429.766 602.937 429.634 601.641C429.502 600.34 430.447 599.177 431.743 599.044C435.602 598.633 439.438 600.255 443.098 603.845C443.879 604.606 444.035 605.807 443.477 606.744C442.569 608.267 441.296 609.501 439.636 610.447C440.913 611.241 442.091 612.215 443.169 613.379C443.599 613.838 443.831 614.452 443.808 615.081C443.779 615.71 443.51 616.306 443.041 616.732C439.513 619.976 435.858 621.769 432.183 622.076C432.117 622.081 432.051 622.085 431.989 622.085Z" fill="#6D4C41"/>
<path d="M455.588 586.663C454.283 586.663 453.224 585.604 453.224 584.299C453.224 581.693 451.105 579.569 448.494 579.569C445.884 579.569 443.765 581.693 443.765 584.299C443.765 585.604 442.706 586.663 441.401 586.663C440.095 586.663 439.036 585.604 439.036 584.299C439.036 579.082 443.278 574.84 448.494 574.84C453.711 574.84 457.953 579.082 457.953 584.299C457.953 585.609 456.894 586.663 455.588 586.663Z" fill="#6D4C41"/>
<path d="M427.213 586.663C425.907 586.663 424.848 585.604 424.848 584.299C424.848 581.693 422.725 579.569 420.119 579.569C417.513 579.569 415.389 581.693 415.389 584.299C415.389 585.604 414.33 586.663 413.025 586.663C411.72 586.663 410.66 585.604 410.66 584.299C410.66 579.082 414.902 574.84 420.119 574.84C425.335 574.84 429.577 579.082 429.577 584.299C429.577 585.609 428.518 586.663 427.213 586.663Z" fill="#6D4C41"/>
</g>
<path d="M734.93 598.529C730.858 584.663 717.806 574.793 703.183 574.793C688.56 574.793 675.507 584.663 671.435 598.529C667.95 599.163 665.349 603.051 665.349 607.898C665.349 612.741 667.95 616.633 671.435 617.262C675.512 631.133 688.56 641.003 703.183 641.003C717.806 641.003 730.854 631.133 734.93 617.262C738.416 616.633 741.017 612.741 741.017 607.898C741.017 603.051 738.416 599.163 734.93 598.529Z" fill="#FFCA28"/>
<path d="M703.183 593.71C702.426 593.71 701.684 593.346 701.225 592.67C700.492 591.592 700.776 590.121 701.859 589.388C703.67 588.158 705.822 586.266 705.765 584.233C705.699 581.925 702.932 579.764 701.972 579.187C700.847 578.52 700.483 577.063 701.154 575.947C701.821 574.822 703.278 574.457 704.394 575.129C705.004 575.493 710.338 578.832 710.49 584.1C710.584 587.453 708.574 590.551 704.507 593.304C704.101 593.578 703.642 593.71 703.183 593.71Z" fill="#6D4C41"/>
<path d="M725.16 613.625C724.72 612.996 724.001 612.627 723.235 612.627H683.131C682.365 612.627 681.646 612.996 681.202 613.625C680.757 614.249 680.643 615.049 680.899 615.772C684.186 625.202 693.143 631.544 703.183 631.544C713.223 631.544 722.181 625.202 725.467 615.772C725.723 615.049 725.605 614.249 725.16 613.625Z" fill="#F44336"/>
<path d="M688.995 603.169C691.607 603.169 693.724 601.052 693.724 598.44C693.724 595.828 691.607 593.71 688.995 593.71C686.383 593.71 684.266 595.828 684.266 598.44C684.266 601.052 686.383 603.169 688.995 603.169Z" fill="#6D4C41"/>
<path d="M717.371 603.169C719.983 603.169 722.1 601.051 722.1 598.44C722.1 595.828 719.983 593.71 717.371 593.71C714.759 593.71 712.642 595.828 712.642 598.44C712.642 601.051 714.759 603.169 717.371 603.169Z" fill="#6D4C41"/>
<g clip-path="url(#clip22)">
<path d="M433.319 328.28C454.214 328.28 471.153 311.341 471.153 290.446C471.153 269.55 454.214 252.611 433.319 252.611C412.424 252.611 395.485 269.55 395.485 290.446C395.485 311.341 412.424 328.28 433.319 328.28Z" fill="#FFCA28"/>
<path d="M454.554 283.399C453.249 283.399 452.189 282.339 452.189 281.034C452.189 278.428 450.071 276.305 447.46 276.305C444.849 276.305 442.731 278.428 442.731 281.034C442.731 282.339 441.671 283.399 440.366 283.399C439.061 283.399 438.001 282.339 438.001 281.034C438.001 275.818 442.244 271.576 447.46 271.576C452.676 271.576 456.919 275.818 456.919 281.034C456.919 282.344 455.859 283.399 454.554 283.399Z" fill="#6D4C41"/>
<path d="M426.178 283.399C424.873 283.399 423.814 282.339 423.814 281.034C423.814 278.428 421.69 276.305 419.084 276.305C416.478 276.305 414.355 278.428 414.355 281.034C414.355 282.339 413.296 283.399 411.99 283.399C410.685 283.399 409.626 282.339 409.626 281.034C409.626 275.818 413.868 271.576 419.084 271.576C424.301 271.576 428.543 275.818 428.543 281.034C428.543 282.344 427.483 283.399 426.178 283.399Z" fill="#6D4C41"/>
<path d="M433.319 314.092C424.433 314.092 416.171 308.927 412.279 300.94C411.707 299.767 412.194 298.353 413.367 297.781C414.554 297.213 415.958 297.695 416.526 298.868C419.633 305.243 426.225 309.363 433.319 309.363C440.409 309.363 447.001 305.243 450.113 298.868C450.695 297.691 452.123 297.223 453.272 297.781C454.45 298.353 454.937 299.767 454.36 300.94C450.463 308.927 442.206 314.092 433.319 314.092Z" fill="#6D4C41"/>
</g>
<g clip-path="url(#clip23)">
<path d="M581.107 591.197C581.107 588.587 583.226 586.468 585.837 586.468C588.447 586.468 590.566 588.587 590.566 591.197V598.291V593.562C590.566 590.961 592.694 588.833 595.295 588.833C597.896 588.833 600.025 590.961 600.025 593.562V617.208C600.025 622.411 595.768 626.667 590.566 626.667H588.201H569.379C567.837 626.667 566.395 625.915 565.51 624.657L549.057 601.223C547.402 599.19 547.733 596.21 549.814 594.602C551.847 592.947 554.827 593.278 556.435 595.359L562.19 602.595V567.551C562.19 564.95 564.319 562.822 566.92 562.822C569.521 562.822 571.649 564.95 571.649 567.551V598.291V588.833C571.649 586.222 573.768 584.103 576.378 584.103C578.989 584.103 581.107 586.222 581.107 588.833V595.927" fill="#FFCA28"/>
<path d="M562.19 636.125V626.667C562.19 625.362 563.132 624.302 564.29 624.302H597.92C599.083 624.302 600.025 625.362 600.025 626.667V636.125C600.025 637.431 599.083 638.49 597.925 638.49H564.29C563.132 638.49 562.19 637.431 562.19 636.125Z" fill="#263238"/>
</g>
<g clip-path="url(#clip24)">
<path d="M687.074 171.623C707.969 171.623 724.908 154.684 724.908 133.789C724.908 112.893 707.969 95.9544 687.074 95.9544C666.179 95.9544 649.24 112.893 649.24 133.789C649.24 154.684 666.179 171.623 687.074 171.623Z" fill="#FFCA28"/>
<path d="M708.308 126.742C707.003 126.742 705.944 125.682 705.944 124.377C705.944 121.771 703.825 119.648 701.214 119.648C698.604 119.648 696.485 121.771 696.485 124.377C696.485 125.682 695.426 126.742 694.12 126.742C692.815 126.742 691.756 125.682 691.756 124.377C691.756 119.161 695.998 114.919 701.214 114.919C706.431 114.919 710.673 119.161 710.673 124.377C710.673 125.687 709.614 126.742 708.308 126.742Z" fill="#6D4C41"/>
<path d="M679.933 126.742C678.627 126.742 677.568 125.682 677.568 124.377C677.568 121.771 675.444 119.648 672.839 119.648C670.233 119.648 668.109 121.771 668.109 124.377C668.109 125.682 667.05 126.742 665.745 126.742C664.439 126.742 663.38 125.682 663.38 124.377C663.38 119.161 667.622 114.919 672.839 114.919C678.055 114.919 682.297 119.161 682.297 124.377C682.297 125.687 681.238 126.742 679.933 126.742Z" fill="#6D4C41"/>
<path d="M713.927 139.506C713.477 138.915 712.782 138.565 712.044 138.565H662.009C661.266 138.565 660.571 138.91 660.126 139.501C659.672 140.097 659.531 140.859 659.729 141.573C663.148 153.722 674.376 162.211 687.022 162.211C699.668 162.211 710.895 153.722 714.314 141.573C714.518 140.859 714.376 140.097 713.927 139.506Z" fill="#FAFAFA"/>
<path d="M720.084 107.12C719.493 105.096 716.13 105.096 715.539 107.12C714.409 111.022 710.72 123.961 710.72 126.695C710.72 130.606 713.903 133.788 717.814 133.788C721.725 133.788 724.908 130.606 724.908 126.695C724.908 123.961 721.219 111.022 720.084 107.12Z" fill="#2196F3"/>
</g>
<g clip-path="url(#clip25)">
<path d="M782.103 265.617C802.998 265.617 819.937 248.678 819.937 227.783C819.937 206.888 802.998 189.949 782.103 189.949C761.207 189.949 744.269 206.888 744.269 227.783C744.269 248.678 761.207 265.617 782.103 265.617Z" fill="#FFCA28"/>
<path d="M767.915 223.054C770.527 223.054 772.644 220.936 772.644 218.324C772.644 215.712 770.527 213.595 767.915 213.595C765.303 213.595 763.186 215.712 763.186 218.324C763.186 220.936 765.303 223.054 767.915 223.054Z" fill="#6D4C41"/>
<path d="M796.291 223.054C798.902 223.054 801.02 220.936 801.02 218.324C801.02 215.712 798.902 213.595 796.291 213.595C793.679 213.595 791.561 215.712 791.561 218.324C791.561 220.936 793.679 223.054 796.291 223.054Z" fill="#6D4C41"/>
<path d="M779.738 256.158C778.523 256.158 777.487 255.227 777.383 253.992C777.274 252.692 778.239 251.543 779.544 251.439C781.502 251.273 783.522 250.45 785.565 248.984C783.829 247.726 781.833 246.984 779.44 246.681C778.258 246.53 777.369 245.518 777.374 244.321C777.378 243.125 778.277 242.122 779.464 241.985C782.368 241.654 784.491 240.944 785.877 239.842C783.843 238.286 781.876 237.62 779.979 237.818C778.65 237.941 777.515 237.01 777.383 235.714C777.251 234.413 778.196 233.25 779.492 233.117C783.351 232.706 787.187 234.328 790.847 237.918C791.628 238.679 791.784 239.88 791.226 240.817C790.318 242.339 789.045 243.574 787.385 244.52C788.662 245.314 789.84 246.288 790.918 247.452C791.349 247.911 791.58 248.525 791.557 249.154C791.528 249.783 791.259 250.379 790.79 250.805C787.262 254.049 783.607 255.842 779.932 256.149C779.866 256.154 779.8 256.158 779.738 256.158Z" fill="#6D4C41"/>
</g>
<g clip-path="url(#clip26)">
<path d="M890.701 319.503C886.629 305.636 873.576 295.766 858.953 295.766C844.33 295.766 831.278 305.636 827.206 319.503C823.72 320.136 821.119 324.024 821.119 328.871C821.119 333.714 823.72 337.606 827.206 338.235C831.282 352.106 844.33 361.976 858.953 361.976C873.576 361.976 886.624 352.106 890.701 338.235C894.186 337.606 896.787 333.714 896.787 328.871C896.787 324.024 894.186 320.136 890.701 319.503Z" fill="#FFCA28"/>
<path d="M858.953 314.684C858.196 314.684 857.454 314.319 856.995 313.643C856.262 312.565 856.546 311.094 857.629 310.361C859.44 309.131 861.592 307.24 861.535 305.206C861.469 302.898 858.702 300.737 857.742 300.16C856.617 299.493 856.253 298.036 856.924 296.92C857.591 295.795 859.048 295.431 860.164 296.102C860.774 296.466 866.108 299.805 866.26 305.074C866.354 308.427 864.344 311.524 860.277 314.277C859.871 314.551 859.412 314.684 858.953 314.684Z" fill="#6D4C41"/>
<path d="M844.765 324.142C847.377 324.142 849.495 322.025 849.495 319.413C849.495 316.801 847.377 314.683 844.765 314.683C842.153 314.683 840.036 316.801 840.036 319.413C840.036 322.025 842.153 324.142 844.765 324.142Z" fill="#6D4C41"/>
<path d="M873.141 324.142C875.753 324.142 877.87 322.025 877.87 319.413C877.87 316.801 875.753 314.683 873.141 314.683C870.529 314.683 868.412 316.801 868.412 319.413C868.412 322.025 870.529 324.142 873.141 324.142Z" fill="#6D4C41"/>
<path d="M866.047 333.601H856.589C855.283 333.601 854.224 334.66 854.224 335.965V345.424C854.224 349.335 857.407 352.518 861.318 352.518C865.229 352.518 868.412 349.335 868.412 345.424V335.965C868.412 334.66 867.353 333.601 866.047 333.601Z" fill="#F44336"/>
<path d="M870.776 338.33H847.13C845.825 338.33 844.765 337.271 844.765 335.965C844.765 334.66 845.825 333.601 847.13 333.601H870.776C872.082 333.601 873.141 334.66 873.141 335.965C873.141 337.271 872.082 338.33 870.776 338.33Z" fill="#6D4C41"/>
</g>
<g clip-path="url(#clip27)">
<path d="M244.149 108.073C238.289 108.073 232.486 110.277 228.187 114.06C223.889 110.277 218.086 108.073 212.226 108.073C199.963 108.073 190.353 117.125 190.353 128.679C190.353 145.661 223.184 166.834 226.925 169.189C227.312 169.435 227.748 169.554 228.187 169.554C228.618 169.554 229.048 169.44 229.431 169.204C243.023 160.814 266.022 142.847 266.022 128.679C266.022 117.125 256.416 108.073 244.149 108.073Z" fill="#F44336"/>
<path d="M192.415 136.51C193.158 138.066 194.052 139.627 195.116 141.178H261.283C262.342 139.617 263.264 138.061 263.997 136.52C263.879 136.501 263.78 136.449 263.657 136.449H192.718C192.609 136.449 192.519 136.496 192.415 136.51Z" fill="#FFCA28"/>
<path d="M223.458 141.178C223.099 141.178 222.739 141.098 222.403 140.932C220.914 140.19 213.366 136.392 211.346 134.373C208.58 131.606 208.58 127.108 211.346 124.342C214.113 121.575 218.611 121.575 221.377 124.342C223.449 126.413 225.023 134.046 225.785 138.411C225.941 139.286 225.586 140.175 224.872 140.71C224.456 141.017 223.959 141.178 223.458 141.178ZM216.364 126.99C215.759 126.99 215.154 127.222 214.69 127.681C213.768 128.603 213.768 130.102 214.69 131.024C215.371 131.701 217.684 133.077 220.162 134.425C219.419 131.213 218.587 128.381 218.015 127.666C217.556 127.217 216.96 126.99 216.364 126.99ZM218.038 127.681H218.086H218.038Z" fill="#FFCA28"/>
<path d="M223.458 141.178C222.957 141.178 222.46 141.017 222.044 140.71C221.33 140.175 220.975 139.286 221.126 138.411C221.888 134.046 223.467 126.409 225.534 124.342C228.301 121.575 232.803 121.575 235.565 124.342C238.332 127.108 238.332 131.606 235.565 134.373C233.546 136.392 226.002 140.19 224.508 140.932C224.177 141.098 223.817 141.178 223.458 141.178ZM228.901 127.666C228.329 128.385 227.492 131.213 226.754 134.429C229.232 133.077 231.545 131.701 232.226 131.029C233.148 130.107 233.148 128.608 232.226 127.685C231.309 126.768 229.824 126.763 228.901 127.666Z" fill="#FFCA28"/>
<path d="M216.364 150.636C215.868 150.636 215.371 150.485 214.946 150.163C213.9 149.378 213.688 147.898 214.473 146.853L221.567 137.394C222.352 136.349 223.832 136.141 224.877 136.922C225.922 137.707 226.135 139.187 225.35 140.232L218.256 149.691C217.793 150.31 217.083 150.636 216.364 150.636Z" fill="#FFCA28"/>
<path d="M230.552 150.637C229.833 150.637 229.124 150.31 228.661 149.691L221.567 140.232C220.782 139.187 220.994 137.707 222.04 136.922C223.085 136.132 224.565 136.345 225.35 137.395L232.444 146.853C233.229 147.898 233.016 149.379 231.971 150.164C231.545 150.485 231.049 150.637 230.552 150.637Z" fill="#FFCA28"/>
</g>
<g clip-path="url(#clip28)">
<path d="M181.376 275.56C201.559 270.152 213.537 249.406 208.128 229.223C202.72 209.039 181.975 197.062 161.791 202.47C141.608 207.878 129.63 228.624 135.039 248.807C140.447 268.99 161.192 280.968 181.376 275.56Z" fill="#FFCA28"/>
<path d="M178.894 266.481C166.675 269.756 153.637 264.46 147.19 253.61C146.517 252.488 146.888 251.037 148.011 250.369C149.131 249.707 150.585 250.071 151.253 251.194C156.624 260.238 167.489 264.646 177.672 261.918C187.854 259.189 195.055 249.94 195.189 239.422C195.206 238.115 196.258 237.069 197.584 237.086C198.891 237.103 199.934 238.18 199.92 239.481C199.753 252.104 191.109 263.208 178.894 266.481Z" fill="#6D4C41"/>
<path d="M190.271 226.712C189.01 227.05 187.712 226.301 187.375 225.04C186.7 222.523 184.104 221.02 181.582 221.696C179.061 222.372 177.564 224.971 178.238 227.488C178.576 228.749 177.827 230.047 176.566 230.384C175.305 230.722 174.008 229.973 173.67 228.712C172.32 223.674 175.32 218.478 180.358 217.128C185.397 215.778 190.593 218.778 191.943 223.816C192.282 225.082 191.531 226.374 190.271 226.712Z" fill="#6D4C41"/>
<path d="M162.862 234.056C161.601 234.394 160.304 233.645 159.966 232.384C159.291 229.867 156.691 228.366 154.174 229.04C151.657 229.715 150.155 232.315 150.83 234.832C151.167 236.093 150.418 237.391 149.158 237.729C147.897 238.066 146.599 237.317 146.262 236.056C144.911 231.018 147.911 225.822 152.95 224.472C157.988 223.122 163.184 226.122 164.534 231.16C164.873 232.426 164.123 233.719 162.862 234.056Z" fill="#6D4C41"/>
</g>
<g clip-path="url(#clip29)">
<path d="M295.916 112.43C295.364 112.772 295.013 113.314 294.844 113.964C294.708 114.618 291.667 130.058 300.912 144.526C301.257 145.069 301.807 145.446 302.439 145.571C303.067 145.695 303.724 145.563 304.253 145.196L330.995 126.706C331.496 126.355 331.876 125.85 332.027 125.283C332.105 124.996 332.122 124.692 332.072 124.385C331.914 123.476 331.333 122.777 330.442 122.538C316.326 117.15 297.954 112.207 297.771 112.158C297.141 111.989 296.469 112.083 295.916 112.43Z" fill="#FFA000"/>
<path d="M276.469 182.541C276.303 183.142 276.323 183.833 276.63 184.405C276.937 184.977 277.47 185.399 278.101 185.568C278.284 185.617 296.666 190.523 311.35 192.861L311.395 192.873C312.286 193.112 313.233 192.812 313.824 192.104C314.048 191.836 314.204 191.526 314.291 191.201C314.433 190.671 314.387 190.096 314.144 189.576L300.23 160.192C299.954 159.613 299.456 159.171 298.85 158.965C298.239 158.762 297.573 158.814 297.005 159.107C281.765 167.014 276.677 181.911 276.469 182.541Z" fill="#FFA000"/>
<path d="M297.029 151.471C291.812 170.94 302.179 192.02 319.214 196.584L323.663 197.776C327.592 198.829 331.699 198.446 335.229 196.694C346.799 190.937 355.354 180.48 358.699 167.995C362.044 155.511 359.864 142.177 352.718 131.405C350.541 128.129 347.176 125.739 343.248 124.686L338.798 123.494C321.764 118.93 302.246 132.002 297.029 151.471Z" fill="#FFCA28"/>
<path d="M295.726 160.865L308.45 154.531L300.706 142.483C299.158 145.28 297.885 148.278 297.029 151.471C296.195 154.586 295.8 157.741 295.726 160.865Z" fill="#FFA000"/>
<path d="M323.05 173.131C323.726 170.608 322.229 168.015 319.706 167.339C317.183 166.663 314.59 168.16 313.914 170.683C313.238 173.206 314.735 175.799 317.258 176.475C319.781 177.151 322.374 175.654 323.05 173.131Z" fill="#6D4C41"/>
<path d="M330.394 145.723C331.07 143.2 329.573 140.607 327.05 139.93C324.527 139.254 321.934 140.752 321.258 143.275C320.582 145.797 322.079 148.391 324.602 149.067C327.125 149.743 329.718 148.246 330.394 145.723Z" fill="#6D4C41"/>
<path d="M352.626 150.788C352.469 151.373 352.089 151.898 351.526 152.227C342.768 157.283 339.544 169.316 344.602 178.069C345.254 179.198 344.866 180.646 343.736 181.298C342.607 181.951 341.159 181.562 340.507 180.433C337.351 174.961 336.507 168.59 338.142 162.487C339.778 156.384 343.694 151.289 349.162 148.132C350.291 147.48 351.739 147.868 352.391 148.997C352.72 149.56 352.783 150.204 352.626 150.788Z" fill="#6D4C41"/>
</g>
<g clip-path="url(#clip30)">
<path d="M537.511 0.925659C533.633 0.925659 499.677 1.20941 499.677 10.3842H504.69C507.007 8.58707 518.074 5.65493 537.511 5.65493C556.948 5.65493 568.015 8.58707 570.332 10.3842H575.345C575.345 1.20941 541.389 0.925659 537.511 0.925659Z" fill="#F06292"/>
<path d="M537.511 76.5939C558.406 76.5939 575.345 59.655 575.345 38.7598C575.345 17.8646 558.406 0.925659 537.511 0.925659C516.616 0.925659 499.677 17.8646 499.677 38.7598C499.677 59.655 516.616 76.5939 537.511 76.5939Z" fill="#FFCA28"/>
<path d="M523.323 34.0305C525.935 34.0305 528.052 31.9132 528.052 29.3013C528.052 26.6894 525.935 24.572 523.323 24.572C520.711 24.572 518.594 26.6894 518.594 29.3013C518.594 31.9132 520.711 34.0305 523.323 34.0305Z" fill="#6D4C41"/>
<path d="M551.699 34.0305C554.311 34.0305 556.428 31.9132 556.428 29.3013C556.428 26.6894 554.311 24.572 551.699 24.572C549.087 24.572 546.969 26.6894 546.969 29.3013C546.969 31.9132 549.087 34.0305 551.699 34.0305Z" fill="#6D4C41"/>
<path d="M537.511 62.4063C531.192 62.4063 525.257 59.9423 520.788 55.4779C519.866 54.5557 519.866 53.0565 520.788 52.1343C521.71 51.2121 523.209 51.2121 524.132 52.1343C531.278 59.2849 543.734 59.2849 550.885 52.1343C551.807 51.2121 553.307 51.2121 554.229 52.1343C555.151 53.0565 555.151 54.5557 554.229 55.4779C549.764 59.9423 543.829 62.4063 537.511 62.4063Z" fill="#6D4C41"/>
<path d="M575.345 10.3842C575.345 19.559 541.389 19.8427 537.511 19.8427C533.633 19.8427 499.677 19.559 499.677 10.3842H504.69C507.007 12.1813 518.074 15.1135 537.511 15.1135C556.948 15.1135 568.015 12.1813 570.332 10.3842H575.345Z" fill="#F06292"/>
</g>
<g clip-path="url(#clip31)">
<path d="M878.166 118.123C899.061 118.123 916 101.184 916 80.2887C916 59.3935 899.061 42.4546 878.166 42.4546C857.27 42.4546 840.332 59.3935 840.332 80.2887C840.332 101.184 857.27 118.123 878.166 118.123Z" fill="#FFCA28"/>
<path d="M899.4 73.242C898.095 73.242 897.036 72.1827 897.036 70.8774C897.036 68.2716 894.917 66.1481 892.306 66.1481C889.696 66.1481 887.577 68.2716 887.577 70.8774C887.577 72.1827 886.518 73.242 885.213 73.242C883.907 73.242 882.848 72.1827 882.848 70.8774C882.848 65.661 887.09 61.4189 892.306 61.4189C897.523 61.4189 901.765 65.661 901.765 70.8774C901.765 72.1874 900.706 73.242 899.4 73.242Z" fill="#6D4C41"/>
<path d="M871.025 73.242C869.719 73.242 868.66 72.1827 868.66 70.8774C868.66 68.2716 866.537 66.1481 863.931 66.1481C861.325 66.1481 859.201 68.2716 859.201 70.8774C859.201 72.1827 858.142 73.242 856.837 73.242C855.532 73.242 854.472 72.1827 854.472 70.8774C854.472 65.661 858.714 61.4189 863.931 61.4189C869.147 61.4189 873.389 65.661 873.389 70.8774C873.389 72.1874 872.33 73.242 871.025 73.242Z" fill="#6D4C41"/>
<path d="M905.019 86.0063C904.569 85.4151 903.874 85.0652 903.136 85.0652H853.101C852.358 85.0652 851.663 85.4104 851.219 86.0016C850.765 86.5975 850.623 87.3589 850.821 88.073C854.241 100.222 865.468 108.712 878.114 108.712C890.76 108.712 901.987 100.222 905.406 88.073C905.61 87.3589 905.468 86.5975 905.019 86.0063Z" fill="#FAFAFA"/>
</g>
<defs>
<clipPath id="clip0">
<rect width="75.6683" height="75.6683" fill="white" transform="translate(164.194 545.678)"/>
</clipPath>
<clipPath id="clip1">
<rect width="75.6683" height="75.6683" fill="white" transform="translate(93.4028 435.723)"/>
</clipPath>
<clipPath id="clip2">
<rect width="75.6683" height="75.6683" fill="white" transform="translate(400.066 365.67)"/>
</clipPath>
<clipPath id="clip3">
<rect width="75.6683" height="75.6683" fill="white" transform="translate(485.932 343.65)"/>
</clipPath>
<clipPath id="clip4">
<rect width="75.6683" height="75.6683" fill="white" transform="translate(460.512 490.7)"/>
</clipPath>
<clipPath id="clip5">
<rect width="75.6683" height="75.6683" fill="white" transform="translate(560.271 397.889)"/>
</clipPath>
<clipPath id="clip6">
<rect width="75.6683" height="75.6683" fill="white" transform="translate(601.504 317.934)"/>
</clipPath>
<clipPath id="clip7">
<rect width="75.6683" height="75.6683" fill="white" transform="translate(691.656 395.82)"/>
</clipPath>
<clipPath id="clip8">
<rect width="0.14779" height="0.14779" fill="white" transform="translate(706.73 508.287)"/>
</clipPath>
<clipPath id="clip9">
<rect width="75.6708" height="75.6708" fill="white" transform="translate(749.589 324.88)"/>
</clipPath>
<clipPath id="clip10">
<rect width="75.6683" height="75.6683" fill="white" transform="translate(606.972 515.529)"/>
</clipPath>
<clipPath id="clip11">
<rect width="75.6683" height="75.6683" fill="white" transform="translate(744.417 514.79)"/>
</clipPath>
<clipPath id="clip12">
<rect width="75.6683" height="75.6683" fill="white" transform="translate(434.502 535.185) rotate(-180)"/>
</clipPath>
<clipPath id="clip13">
<rect width="75.6683" height="75.6683" fill="white" transform="translate(644.806 203.841)"/>
</clipPath>
<clipPath id="clip14">
<rect width="75.7109" height="75.7109" fill="white" transform="translate(498.346 220.098)"/>
</clipPath>
<clipPath id="clip15">
<rect width="75.6683" height="75.6683" fill="white" transform="translate(450.025 207.104) rotate(-135)"/>
</clipPath>
<clipPath id="clip16">
<rect width="75.6683" height="75.6683" fill="white" transform="translate(258.78 427.742)"/>
</clipPath>
<clipPath id="clip17">
<rect width="75.6683" height="75.6683" fill="white" transform="translate(167.342 293.741) rotate(30)"/>
</clipPath>
<clipPath id="clip18">
<rect width="75.6683" height="75.6683" fill="white" transform="translate(294.545 553.363)"/>
</clipPath>
<clipPath id="clip19">
<rect width="75.6675" height="75.6675" fill="white" transform="translate(277.401 316.161)"/>
</clipPath>
<clipPath id="clip20">
<rect width="75.6683" height="75.6683" fill="white" transform="translate(0 528.535)"/>
</clipPath>
<clipPath id="clip21">
<rect width="75.6683" height="75.6683" fill="white" transform="translate(396.52 555.876)"/>
</clipPath>
<clipPath id="clip22">
<rect width="75.6683" height="75.6683" fill="white" transform="translate(395.485 252.611)"/>
</clipPath>
<clipPath id="clip23">
<rect width="75.6683" height="75.6683" fill="white" transform="translate(536.181 562.822)"/>
</clipPath>
<clipPath id="clip24">
<rect width="75.6683" height="75.6683" fill="white" transform="translate(649.24 95.9544)"/>
</clipPath>
<clipPath id="clip25">
<rect width="75.6683" height="75.6683" fill="white" transform="translate(744.269 189.949)"/>
</clipPath>
<clipPath id="clip26">
<rect width="75.6683" height="75.6683" fill="white" transform="translate(821.119 291.037)"/>
</clipPath>
<clipPath id="clip27">
<rect width="75.6683" height="75.6683" fill="white" transform="translate(190.353 100.979)"/>
</clipPath>
<clipPath id="clip28">
<rect width="75.6683" height="75.6683" fill="white" transform="translate(125.246 212.262) rotate(-15)"/>
</clipPath>
<clipPath id="clip29">
<rect width="75.9993" height="75.9993" fill="white" transform="translate(275.659 184.914) rotate(-75)"/>
</clipPath>
<clipPath id="clip30">
<rect width="75.6683" height="75.6683" fill="white" transform="translate(499.677 0.925659)"/>
</clipPath>
<clipPath id="clip31">
<rect width="75.6683" height="75.6683" fill="white" transform="translate(840.332 42.4546)"/>
</clipPath>
</defs>
</svg>
