<?xml version="1.0" encoding="utf-8"?>
<!-- Generator: Adobe Illustrator 24.3.0, SVG Export Plug-In . SVG Version: 6.00 Build 0)  -->
<svg version="1.1" id="Camada_1" xmlns="http://www.w3.org/2000/svg" xmlns:xlink="http://www.w3.org/1999/xlink" x="0px" y="0px"
	 viewBox="0 0 560 186.4" style="enable-background:new 0 0 560 186.4;" xml:space="preserve">
<g fill="currentColor">
	<g>
		<path d="M70.5,40.9h42.7v3.4H74.4V70h36.5v3.4H74.4v28.1h39.3v3.4H70.5C70.5,104.9,70.5,40.9,70.5,40.9z M117,40.9h4.5l20.1,28.1
			l20.6-28.1l28-35.7l-46,66.8l23.7,32.9h-4.7L141.7,75l-21.6,29.9h-4.6L139.3,72L117,40.9L117,40.9z M169.6,44.3v-3.4h48.7v3.4
			h-22.4v60.6H192V44.3L169.6,44.3L169.6,44.3z M17,40.9h4.9l67.5,101.3l-27.9-37.3L21.1,45.8l-0.2,59.1H17
			C17,104.9,17,40.9,17,40.9z M218,100.5c-0.8,0-1.4-0.6-1.4-1.4c0-0.8,0.6-1.4,1.4-1.4c0.8,0,1.4,0.6,1.4,1.4
			C219.4,99.9,218.8,100.5,218,100.5L218,100.5z M221.8,96.7h2.1c0,1.1,0.9,1.9,2.1,1.9c1.4,0,2.1-0.8,2.1-2.4v-9.8h2.1v9.8
			c0,2.8-1.6,4.4-4.3,4.4C223.5,100.6,221.8,99.1,221.8,96.7L221.8,96.7z M233,96.6h2.1c0.2,1.3,1.5,2.1,3.3,2.1c1.7,0,3-0.9,3-2.1
			c0-1.1-0.8-1.7-2.6-2.1l-1.8-0.4c-2.5-0.6-3.6-1.8-3.6-3.8c0-2.5,2-4.1,5-4.1c2.8,0,4.8,1.6,5,4h-2.1c-0.2-1.3-1.3-2.1-2.9-2.1
			c-1.7,0-2.8,0.8-2.8,2.1c0,1,0.7,1.5,2.5,2l1.5,0.4c2.8,0.7,4,1.8,4,3.9c0,2.6-2,4.3-5.3,4.3C235.2,100.6,233.2,99.1,233,96.6
			L233,96.6z"/>
		<path d="M305.9,77.8c2.4,2.8,3.6,6.3,3.6,10.8c0,5.5-2,9.6-6,12.6c-4,2.9-9.9,4.4-17.7,4.4h-28.7V41.2H284c7,0,12.4,1.4,16.3,4.3
			c3.9,2.8,5.8,6.9,5.8,12.2c0,3.7-1,6.8-2.9,9.3c-1.9,2.5-4.5,4.3-7.9,5.4C300,73.2,303.5,75,305.9,77.8z M261.8,45.3v25.6h22
			c5.6,0,10-1.1,13-3.3c3-2.2,4.5-5.4,4.5-9.6c0-4.2-1.5-7.3-4.5-9.5s-7.4-3.3-13-3.3H261.8z M300,98.2c3.2-2.2,4.8-5.5,4.8-10.1
			c0-4.5-1.6-7.9-4.8-10c-3.2-2.1-7.9-3.2-14.2-3.2h-24v26.6h24C292.1,101.5,296.8,100.4,300,98.2z"/>
		<path d="M345.1,84L345.1,84c-2.3,0.3-4.4,0.5-6.2,0.5h-18.4v21h-4.7V41.2h23.1c8.1,0,14.4,1.9,19,5.7c4.6,3.8,6.9,9.1,6.9,15.9
			c0,5.1-1.3,9.4-3.9,12.8c-2.6,3.5-6.3,5.9-11.2,7.3l42.6,59.4L345.1,84z M338.9,80.4c6.9,0,12.1-1.5,15.7-4.5
			c3.6-3,5.4-7.3,5.4-12.9c0-5.6-1.8-9.9-5.4-12.9c-3.6-3-8.9-4.5-15.7-4.5h-18.4v34.9H338.9z"/>
		<path d="M419.8,87.4h-37.3l-8.2,18.1h-5.1l29.6-64.3h4.7l29.6,64.3h-5.1L419.8,87.4z M418.1,83.5l-16.9-37.1l-16.8,37.1H418.1z"/>
		<path d="M443.1,103.6c-4.3-1.6-7.6-3.7-10-6.3l2.1-3.5c2.3,2.4,5.3,4.3,9.1,5.8c3.8,1.5,7.9,2.3,12.1,2.3c6.1,0,10.8-1.2,13.9-3.5
			c3.1-2.3,4.7-5.4,4.7-9.1c0-2.9-0.8-5.2-2.5-6.9c-1.7-1.7-3.7-3-6.2-4c-2.5-0.9-5.8-1.9-9.9-2.8c-4.7-1.2-8.5-2.3-11.3-3.4
			c-2.8-1.1-5.3-2.8-7.3-5.1c-2-2.3-3-5.4-3-9.2c0-3.1,0.8-6,2.5-8.6c1.7-2.6,4.2-4.7,7.6-6.2c3.4-1.5,7.6-2.3,12.7-2.3
			c3.6,0,7,0.5,10.5,1.6c3.4,1,6.4,2.5,8.9,4.2l-1.7,3.8c-2.6-1.8-5.4-3.1-8.5-4c-3.1-0.9-6.1-1.4-9.1-1.4c-5.9,0-10.4,1.2-13.5,3.6
			s-4.6,5.5-4.6,9.3c0,2.9,0.8,5.2,2.5,6.9c1.7,1.7,3.7,3,6.2,4c2.5,0.9,5.8,1.9,10,2.9c4.7,1.2,8.5,2.3,11.3,3.4
			c2.8,1.1,5.2,2.8,7.2,5c2,2.2,3,5.3,3,9.1c0,3.1-0.8,6-2.5,8.5c-1.7,2.6-4.3,4.6-7.8,6.2c-3.5,1.5-7.8,2.3-12.9,2.3
			C451.9,106,447.4,105.2,443.1,103.6z"/>
		<path d="M488.2,41.2h4.7v64.3h-4.7V41.2z"/>
		<path d="M504.6,41.2h4.7v60.1h37v4.2h-41.7V41.2z"/>
	</g>
	<g>
		<path d="M30.3,157.1c-0.2-0.6-0.4-1.1-0.7-1.5s-0.7-0.8-1.1-1.2c-0.4-0.3-0.9-0.6-1.5-0.7c-0.5-0.2-1.1-0.2-1.8-0.2
			c-1.2,0-2.2,0.3-3.1,0.9c-0.9,0.6-1.6,1.4-2.1,2.6c-0.5,1.1-0.8,2.5-0.8,4.1c0,1.6,0.3,3,0.8,4.1s1.2,2,2.1,2.6
			c0.9,0.6,2,0.9,3.2,0.9c1.1,0,2-0.2,2.8-0.6c0.8-0.4,1.4-1,1.9-1.8c0.4-0.8,0.7-1.7,0.7-2.7l0.9,0.1h-5.8v-3h8.7v2.6
			c0,1.8-0.4,3.4-1.2,4.8c-0.8,1.3-1.9,2.4-3.2,3.1c-1.4,0.7-2.9,1.1-4.7,1.1c-2,0-3.7-0.4-5.2-1.3s-2.7-2.2-3.5-3.8
			c-0.8-1.7-1.3-3.6-1.3-5.9c0-1.7,0.2-3.3,0.7-4.7s1.2-2.5,2.1-3.5c0.9-1,1.9-1.7,3.1-2.2s2.5-0.8,3.9-0.8c1.2,0,2.3,0.2,3.3,0.5
			s1.9,0.8,2.7,1.5s1.5,1.4,2,2.3c0.5,0.9,0.9,1.8,1,2.9H30.3z"/>
		<path d="M36.8,171.8v-16.1h3.7v2.7h0.2c0.3-0.9,0.8-1.7,1.5-2.2s1.5-0.8,2.5-0.8c0.2,0,0.4,0,0.7,0s0.5,0,0.7,0.1v3.5
			c-0.2-0.1-0.4-0.1-0.8-0.2c-0.3,0-0.7-0.1-1-0.1c-0.7,0-1.3,0.1-1.9,0.4c-0.6,0.3-1,0.7-1.3,1.2c-0.3,0.5-0.5,1.1-0.5,1.8v9.5
			H36.8z"/>
		<path d="M57.7,165v-9.4h3.8v16.1h-3.7v-2.9h-0.2c-0.4,0.9-1,1.6-1.8,2.2c-0.8,0.6-1.9,0.9-3.1,0.9c-1.1,0-2-0.2-2.8-0.7
			c-0.8-0.5-1.4-1.2-1.9-2.1c-0.5-0.9-0.7-2-0.7-3.3v-10.3h3.8v9.7c0,1,0.3,1.8,0.8,2.4s1.3,0.9,2.2,0.9c0.6,0,1.1-0.1,1.6-0.4
			s1-0.7,1.3-1.2S57.7,165.8,57.7,165z"/>
		<path d="M64.2,177.8v-22.2h3.7v2.7h0.2c0.2-0.4,0.5-0.8,0.8-1.3c0.4-0.4,0.8-0.8,1.5-1.1c0.6-0.3,1.4-0.5,2.3-0.5
			c1.2,0,2.4,0.3,3.4,1c1,0.6,1.8,1.6,2.4,2.8s0.9,2.8,0.9,4.5c0,1.8-0.3,3.3-0.9,4.5s-1.4,2.2-2.4,2.8c-1,0.7-2.1,1-3.4,1
			c-0.9,0-1.7-0.2-2.3-0.5c-0.6-0.3-1.1-0.7-1.5-1.1s-0.7-0.9-0.9-1.2H68v8.6H64.2z M67.9,163.7c0,1,0.1,2,0.4,2.7
			c0.3,0.8,0.7,1.4,1.3,1.8c0.6,0.4,1.2,0.7,2.1,0.7c0.8,0,1.5-0.2,2.1-0.7c0.6-0.5,1-1.1,1.3-1.9c0.3-0.8,0.4-1.7,0.4-2.7
			c0-1-0.1-1.9-0.4-2.7c-0.3-0.8-0.7-1.4-1.3-1.8c-0.6-0.4-1.3-0.7-2.1-0.7c-0.8,0-1.5,0.2-2.1,0.6c-0.6,0.4-1,1-1.3,1.8
			C68.1,161.8,67.9,162.7,67.9,163.7z"/>
		<path d="M88.5,172.1c-1.6,0-2.9-0.3-4.1-1c-1.2-0.7-2.1-1.7-2.7-2.9c-0.6-1.2-1-2.7-1-4.4c0-1.7,0.3-3.1,1-4.4
			c0.6-1.3,1.5-2.2,2.7-2.9s2.5-1,4.1-1c1.6,0,2.9,0.3,4.1,1c1.2,0.7,2.1,1.7,2.7,2.9c0.6,1.3,1,2.7,1,4.4c0,1.7-0.3,3.1-1,4.4
			c-0.6,1.2-1.5,2.2-2.7,2.9C91.5,171.7,90.1,172.1,88.5,172.1z M88.6,169c0.9,0,1.6-0.2,2.1-0.7c0.6-0.5,1-1.1,1.3-1.9
			s0.4-1.7,0.4-2.7c0-1-0.1-1.9-0.4-2.7c-0.3-0.8-0.7-1.4-1.3-1.9s-1.3-0.7-2.1-0.7c-0.9,0-1.6,0.2-2.2,0.7s-1,1.1-1.3,1.9
			c-0.3,0.8-0.4,1.7-0.4,2.7c0,1,0.1,1.9,0.4,2.7s0.7,1.4,1.3,1.9C87,168.8,87.7,169,88.6,169z"/>
		<path d="M110.5,172.1c-1.3,0-2.4-0.3-3.4-1c-1-0.7-1.8-1.6-2.4-2.8s-0.9-2.7-0.9-4.5c0-1.8,0.3-3.3,0.9-4.5s1.4-2.2,2.4-2.8
			c1-0.6,2.1-1,3.4-1c0.9,0,1.7,0.2,2.3,0.5c0.6,0.3,1.1,0.7,1.5,1.1c0.4,0.4,0.6,0.9,0.8,1.3h0.2v-8h3.8v21.5h-3.7v-2.5h-0.2
			c-0.2,0.4-0.5,0.8-0.9,1.2c-0.4,0.4-0.9,0.8-1.5,1.1C112.2,171.9,111.4,172.1,110.5,172.1z M111.5,168.9c0.8,0,1.5-0.2,2.1-0.7
			c0.6-0.4,1-1,1.3-1.8c0.3-0.8,0.4-1.7,0.4-2.7s-0.1-2-0.4-2.7c-0.3-0.8-0.7-1.4-1.3-1.8c-0.6-0.4-1.3-0.6-2.1-0.6
			c-0.8,0-1.6,0.2-2.1,0.7s-1,1.1-1.3,1.8c-0.3,0.8-0.4,1.7-0.4,2.7c0,1,0.1,1.9,0.4,2.7c0.3,0.8,0.7,1.4,1.3,1.9
			C110,168.7,110.7,168.9,111.5,168.9z"/>
		<path d="M129,172.1c-1.6,0-2.9-0.3-4.1-1c-1.2-0.7-2.1-1.7-2.7-2.9c-0.6-1.2-1-2.7-1-4.4c0-1.7,0.3-3.1,1-4.4
			c0.6-1.3,1.5-2.2,2.7-2.9s2.5-1,4.1-1c1.6,0,2.9,0.3,4.1,1c1.2,0.7,2.1,1.7,2.7,2.9c0.6,1.3,1,2.7,1,4.4c0,1.7-0.3,3.1-1,4.4
			c-0.6,1.2-1.5,2.2-2.7,2.9C131.9,171.7,130.6,172.1,129,172.1z M129,169c0.9,0,1.6-0.2,2.1-0.7c0.6-0.5,1-1.1,1.3-1.9
			s0.4-1.7,0.4-2.7c0-1-0.1-1.9-0.4-2.7c-0.3-0.8-0.7-1.4-1.3-1.9s-1.3-0.7-2.1-0.7c-0.9,0-1.6,0.2-2.2,0.7s-1,1.1-1.3,1.9
			c-0.3,0.8-0.4,1.7-0.4,2.7c0,1,0.1,1.9,0.4,2.7s0.7,1.4,1.3,1.9C127.4,168.8,128.1,169,129,169z"/>
		<path d="M144.1,153.5v-3.3h17.2v3.3h-6.7v18.3h-3.9v-18.3H144.1z"/>
		<path d="M168,172.1c-1.6,0-3-0.3-4.2-1c-1.2-0.7-2.1-1.6-2.7-2.9c-0.6-1.2-0.9-2.7-0.9-4.4c0-1.7,0.3-3.1,1-4.4
			c0.6-1.3,1.5-2.2,2.7-2.9s2.5-1.1,4-1.1c1,0,1.9,0.2,2.8,0.5c0.9,0.3,1.7,0.8,2.4,1.5c0.7,0.7,1.2,1.5,1.6,2.5
			c0.4,1,0.6,2.2,0.6,3.7v1.2H162v-2.6h9.6c0-0.7-0.2-1.4-0.5-1.9c-0.3-0.6-0.7-1-1.3-1.4c-0.5-0.3-1.2-0.5-1.9-0.5
			c-0.8,0-1.5,0.2-2,0.6s-1,0.9-1.4,1.5c-0.3,0.6-0.5,1.3-0.5,2v2.2c0,0.9,0.2,1.7,0.5,2.4c0.3,0.7,0.8,1.2,1.4,1.5
			c0.6,0.4,1.3,0.5,2.2,0.5c0.6,0,1.1-0.1,1.5-0.2c0.4-0.2,0.8-0.4,1.2-0.7c0.3-0.3,0.6-0.7,0.7-1.1l3.6,0.4
			c-0.2,0.9-0.6,1.8-1.3,2.5s-1.4,1.2-2.4,1.6C170.4,171.9,169.3,172.1,168,172.1z"/>
		<path d="M181.1,150.3v21.5h-3.8v-21.5H181.1z"/>
		<path d="M190.9,172.1c-1.6,0-3-0.3-4.2-1c-1.2-0.7-2.1-1.6-2.7-2.9c-0.6-1.2-0.9-2.7-0.9-4.4c0-1.7,0.3-3.1,1-4.4
			c0.6-1.3,1.5-2.2,2.7-2.9s2.5-1.1,4-1.1c1,0,1.9,0.2,2.8,0.5c0.9,0.3,1.7,0.8,2.4,1.5c0.7,0.7,1.2,1.5,1.6,2.5
			c0.4,1,0.6,2.2,0.6,3.7v1.2h-13.2v-2.6h9.6c0-0.7-0.2-1.4-0.5-1.9c-0.3-0.6-0.7-1-1.3-1.4c-0.5-0.3-1.2-0.5-1.9-0.5
			c-0.8,0-1.5,0.2-2,0.6s-1,0.9-1.4,1.5c-0.3,0.6-0.5,1.3-0.5,2v2.2c0,0.9,0.2,1.7,0.5,2.4c0.3,0.7,0.8,1.2,1.4,1.5
			c0.6,0.4,1.3,0.5,2.2,0.5c0.6,0,1.1-0.1,1.5-0.2c0.4-0.2,0.8-0.4,1.2-0.7c0.3-0.3,0.6-0.7,0.7-1.1l3.6,0.4
			c-0.2,0.9-0.6,1.8-1.3,2.5s-1.4,1.2-2.4,1.6C193.3,171.9,192.2,172.1,190.9,172.1z"/>
		<path d="M207.2,178.1c-1.4,0-2.5-0.2-3.5-0.5s-1.8-0.9-2.4-1.5c-0.6-0.6-1-1.3-1.2-2l3.4-0.8c0.2,0.3,0.4,0.6,0.7,0.9
			c0.3,0.3,0.7,0.6,1.2,0.8c0.5,0.2,1.1,0.3,1.9,0.3c1.1,0,2-0.3,2.7-0.8c0.7-0.5,1.1-1.4,1.1-2.5v-3.1h-0.2
			c-0.2,0.4-0.5,0.8-0.9,1.2c-0.4,0.4-0.9,0.8-1.5,1c-0.6,0.3-1.4,0.4-2.3,0.4c-1.2,0-2.4-0.3-3.4-0.9c-1-0.6-1.8-1.5-2.4-2.6
			c-0.6-1.2-0.9-2.6-0.9-4.4c0-1.8,0.3-3.3,0.9-4.5s1.4-2.2,2.4-2.8c1-0.6,2.1-1,3.4-1c0.9,0,1.7,0.2,2.3,0.5
			c0.6,0.3,1.1,0.7,1.5,1.1c0.4,0.4,0.6,0.9,0.8,1.3h0.2v-2.7h3.8V172c0,1.4-0.3,2.5-1,3.4c-0.7,0.9-1.6,1.6-2.7,2
			C209.9,177.9,208.6,178.1,207.2,178.1z M207.2,168.6c0.8,0,1.5-0.2,2.1-0.6c0.6-0.4,1-1,1.3-1.7c0.3-0.7,0.4-1.6,0.4-2.6
			c0-1-0.1-1.9-0.4-2.7c-0.3-0.8-0.7-1.4-1.3-1.8s-1.3-0.6-2.1-0.6c-0.8,0-1.6,0.2-2.1,0.7s-1,1-1.3,1.8c-0.3,0.8-0.4,1.6-0.4,2.6
			c0,1,0.1,1.9,0.4,2.6c0.3,0.7,0.7,1.3,1.3,1.7C205.7,168.4,206.4,168.6,207.2,168.6z"/>
		<path d="M217.5,171.8v-16.1h3.7v2.7h0.2c0.3-0.9,0.8-1.7,1.5-2.2s1.5-0.8,2.5-0.8c0.2,0,0.4,0,0.7,0s0.5,0,0.7,0.1v3.5
			c-0.2-0.1-0.4-0.1-0.8-0.2c-0.3,0-0.7-0.1-1-0.1c-0.7,0-1.3,0.1-1.9,0.4c-0.6,0.3-1,0.7-1.3,1.2c-0.3,0.5-0.5,1.1-0.5,1.8v9.5
			H217.5z"/>
		<path d="M232.4,172.1c-1,0-1.9-0.2-2.8-0.6c-0.8-0.4-1.5-0.9-1.9-1.6c-0.5-0.7-0.7-1.6-0.7-2.7c0-0.9,0.2-1.7,0.5-2.3
			s0.8-1.1,1.4-1.4s1.2-0.6,2-0.8s1.5-0.3,2.3-0.4c0.9-0.1,1.7-0.2,2.3-0.3c0.6-0.1,1-0.2,1.3-0.4c0.3-0.2,0.4-0.4,0.4-0.8v-0.1
			c0-0.8-0.2-1.4-0.7-1.8c-0.5-0.4-1.1-0.7-2-0.7c-0.9,0-1.7,0.2-2.2,0.6s-0.9,0.9-1.1,1.4l-3.6-0.5c0.3-1,0.7-1.8,1.4-2.5
			s1.4-1.2,2.4-1.5c0.9-0.3,2-0.5,3.1-0.5c0.8,0,1.6,0.1,2.3,0.3c0.8,0.2,1.5,0.5,2.1,0.9c0.6,0.4,1.2,1,1.5,1.7
			c0.4,0.7,0.6,1.6,0.6,2.7v10.8h-3.7v-2.2h-0.1c-0.2,0.4-0.6,0.9-1,1.3s-0.9,0.7-1.6,0.9S233.2,172.1,232.4,172.1z M233.4,169.3
			c0.8,0,1.4-0.2,2-0.5s1-0.7,1.3-1.2c0.3-0.5,0.5-1.1,0.5-1.7v-1.9c-0.1,0.1-0.3,0.2-0.6,0.3s-0.6,0.2-1,0.2
			c-0.4,0.1-0.7,0.1-1,0.2c-0.3,0-0.6,0.1-0.9,0.1c-0.6,0.1-1.1,0.2-1.5,0.4c-0.4,0.2-0.8,0.4-1.1,0.7s-0.4,0.7-0.4,1.2
			c0,0.7,0.3,1.2,0.8,1.6C231.9,169.1,232.6,169.3,233.4,169.3z"/>
		<path d="M243.5,171.8v-16.1h3.6v2.7h0.2c0.3-0.9,0.9-1.6,1.7-2.2c0.8-0.5,1.7-0.8,2.8-0.8c1.1,0,2,0.3,2.8,0.8
			c0.8,0.5,1.3,1.2,1.6,2.2h0.2c0.4-0.9,1-1.6,1.8-2.1c0.9-0.5,1.9-0.8,3-0.8c1.5,0,2.7,0.5,3.6,1.4c0.9,0.9,1.4,2.3,1.4,4.1v10.8
			h-3.8v-10.2c0-1-0.3-1.7-0.8-2.2c-0.5-0.5-1.2-0.7-2-0.7c-0.9,0-1.6,0.3-2.1,0.9c-0.5,0.6-0.8,1.3-0.8,2.2v10.1H253v-10.4
			c0-0.8-0.3-1.5-0.8-2s-1.2-0.7-2-0.7c-0.5,0-1,0.1-1.5,0.4s-0.8,0.7-1.1,1.2c-0.3,0.5-0.4,1.1-0.4,1.7v9.8H243.5z"/>
		<path d="M281.1,172.1c-1.3,0-2.4-0.3-3.4-1c-1-0.7-1.8-1.6-2.4-2.8s-0.9-2.7-0.9-4.5c0-1.8,0.3-3.3,0.9-4.5s1.4-2.2,2.4-2.8
			c1-0.6,2.1-1,3.4-1c0.9,0,1.7,0.2,2.3,0.5c0.6,0.3,1.1,0.7,1.5,1.1c0.4,0.4,0.6,0.9,0.8,1.3h0.2v-8h3.8v21.5h-3.7v-2.5h-0.2
			c-0.2,0.4-0.5,0.8-0.9,1.2c-0.4,0.4-0.9,0.8-1.5,1.1S282,172.1,281.1,172.1z M282.1,168.9c0.8,0,1.5-0.2,2.1-0.7
			c0.6-0.4,1-1,1.3-1.8c0.3-0.8,0.4-1.7,0.4-2.7s-0.1-2-0.4-2.7c-0.3-0.8-0.7-1.4-1.3-1.8c-0.6-0.4-1.3-0.6-2.1-0.6
			c-0.8,0-1.6,0.2-2.1,0.7s-1,1.1-1.3,1.8c-0.3,0.8-0.4,1.7-0.4,2.7c0,1,0.1,1.9,0.4,2.7c0.3,0.8,0.7,1.4,1.3,1.9
			C280.6,168.7,281.3,168.9,282.1,168.9z"/>
		<path d="M299.7,172.1c-1.6,0-3-0.3-4.2-1c-1.2-0.7-2.1-1.6-2.7-2.9c-0.6-1.2-0.9-2.7-0.9-4.4c0-1.7,0.3-3.1,1-4.4
			c0.6-1.3,1.5-2.2,2.7-2.9c1.1-0.7,2.5-1.1,4-1.1c1,0,1.9,0.2,2.8,0.5c0.9,0.3,1.7,0.8,2.4,1.5c0.7,0.7,1.2,1.5,1.6,2.5
			c0.4,1,0.6,2.2,0.6,3.7v1.2h-13.2v-2.6h9.6c0-0.7-0.2-1.4-0.5-1.9c-0.3-0.6-0.7-1-1.3-1.4s-1.2-0.5-1.9-0.5c-0.8,0-1.5,0.2-2,0.6
			c-0.6,0.4-1,0.9-1.4,1.5c-0.3,0.6-0.5,1.3-0.5,2v2.2c0,0.9,0.2,1.7,0.5,2.4c0.3,0.7,0.8,1.2,1.4,1.5c0.6,0.4,1.3,0.5,2.2,0.5
			c0.6,0,1.1-0.1,1.5-0.2c0.4-0.2,0.8-0.4,1.2-0.7c0.3-0.3,0.6-0.7,0.7-1.1l3.6,0.4c-0.2,0.9-0.7,1.8-1.3,2.5s-1.4,1.2-2.4,1.6
			S301,172.1,299.7,172.1z"/>
		<path d="M314.9,172.1c-1.3,0-2.4-0.3-3.4-1c-1-0.7-1.8-1.6-2.4-2.8c-0.6-1.2-0.9-2.7-0.9-4.5c0-1.8,0.3-3.3,0.9-4.5
			s1.4-2.2,2.4-2.8c1-0.6,2.1-1,3.4-1c0.9,0,1.7,0.2,2.3,0.5c0.6,0.3,1.1,0.7,1.5,1.1c0.4,0.4,0.6,0.9,0.8,1.3h0.2v-8h3.8v21.5h-3.7
			v-2.5h-0.2c-0.2,0.4-0.5,0.8-0.9,1.2c-0.4,0.4-0.9,0.8-1.5,1.1S315.8,172.1,314.9,172.1z M316,168.9c0.8,0,1.5-0.2,2.1-0.7
			c0.6-0.4,1-1,1.3-1.8c0.3-0.8,0.4-1.7,0.4-2.7s-0.1-2-0.4-2.7c-0.3-0.8-0.7-1.4-1.3-1.8c-0.6-0.4-1.3-0.6-2.1-0.6
			c-0.8,0-1.6,0.2-2.1,0.7s-1,1.1-1.3,1.8c-0.3,0.8-0.4,1.7-0.4,2.7c0,1,0.1,1.9,0.4,2.7c0.3,0.8,0.7,1.4,1.3,1.9
			S315.1,168.9,316,168.9z"/>
		<path d="M328.3,153.3c-0.6,0-1.1-0.2-1.6-0.6s-0.6-0.9-0.6-1.5c0-0.6,0.2-1.1,0.7-1.5c0.4-0.4,1-0.6,1.6-0.6s1.1,0.2,1.6,0.6
			c0.4,0.4,0.6,0.9,0.6,1.5c0,0.6-0.2,1.1-0.6,1.5S328.9,153.3,328.3,153.3z M326.4,171.8v-16.1h3.8v16.1H326.4z"/>
		<path d="M340,172.1c-1.6,0-3-0.4-4.1-1.1c-1.2-0.7-2-1.7-2.7-2.9s-0.9-2.7-0.9-4.3c0-1.6,0.3-3.1,0.9-4.3c0.6-1.3,1.5-2.2,2.7-2.9
			s2.5-1.1,4.1-1.1c1.3,0,2.5,0.2,3.5,0.7c1,0.5,1.8,1.2,2.4,2s0.9,1.9,1,3.1h-3.6c-0.1-0.8-0.5-1.4-1-1.9c-0.5-0.5-1.3-0.8-2.2-0.8
			c-0.8,0-1.5,0.2-2,0.6c-0.6,0.4-1,1-1.4,1.8c-0.3,0.8-0.5,1.7-0.5,2.8c0,1.1,0.2,2,0.5,2.8s0.8,1.4,1.4,1.8s1.3,0.6,2.1,0.6
			c0.6,0,1.1-0.1,1.5-0.3c0.4-0.2,0.8-0.5,1.1-0.9c0.3-0.4,0.5-0.9,0.6-1.5h3.6c-0.1,1.1-0.4,2.2-1,3c-0.6,0.9-1.4,1.6-2.4,2.1
			S341.3,172.1,340,172.1z"/>
		<path d="M353.5,172.1c-1,0-1.9-0.2-2.8-0.6c-0.8-0.4-1.5-0.9-1.9-1.6c-0.5-0.7-0.7-1.6-0.7-2.7c0-0.9,0.2-1.7,0.5-2.3
			c0.3-0.6,0.8-1.1,1.4-1.4c0.6-0.4,1.2-0.6,2-0.8s1.5-0.3,2.3-0.4c0.9-0.1,1.7-0.2,2.3-0.3c0.6-0.1,1-0.2,1.3-0.4s0.4-0.4,0.4-0.8
			v-0.1c0-0.8-0.2-1.4-0.7-1.8c-0.5-0.4-1.1-0.7-2-0.7c-0.9,0-1.7,0.2-2.2,0.6s-0.9,0.9-1.1,1.4l-3.6-0.5c0.3-1,0.7-1.8,1.4-2.5
			c0.6-0.7,1.4-1.2,2.4-1.5s2-0.5,3.1-0.5c0.8,0,1.6,0.1,2.3,0.3c0.8,0.2,1.5,0.5,2.1,0.9c0.6,0.4,1.2,1,1.5,1.7
			c0.4,0.7,0.6,1.6,0.6,2.7v10.8h-3.7v-2.2h-0.1c-0.2,0.4-0.6,0.9-1,1.3c-0.4,0.4-0.9,0.7-1.6,0.9S354.3,172.1,353.5,172.1z
			 M354.5,169.3c0.8,0,1.4-0.2,2-0.5s1-0.7,1.3-1.2c0.3-0.5,0.5-1.1,0.5-1.7v-1.9c-0.1,0.1-0.3,0.2-0.6,0.3c-0.3,0.1-0.6,0.2-1,0.2
			c-0.4,0.1-0.7,0.1-1,0.2c-0.3,0-0.6,0.1-0.9,0.1c-0.6,0.1-1.1,0.2-1.5,0.4s-0.8,0.4-1.1,0.7c-0.3,0.3-0.4,0.7-0.4,1.2
			c0,0.7,0.3,1.2,0.8,1.6C353,169.1,353.7,169.3,354.5,169.3z"/>
		<path d="M370.6,172.1c-1.3,0-2.4-0.3-3.4-1c-1-0.7-1.8-1.6-2.4-2.8c-0.6-1.2-0.9-2.7-0.9-4.5c0-1.8,0.3-3.3,0.9-4.5
			s1.4-2.2,2.4-2.8c1-0.6,2.1-1,3.4-1c0.9,0,1.7,0.2,2.3,0.5c0.6,0.3,1.1,0.7,1.5,1.1c0.4,0.4,0.6,0.9,0.8,1.3h0.2v-8h3.8v21.5h-3.7
			v-2.5h-0.2c-0.2,0.4-0.5,0.8-0.9,1.2c-0.4,0.4-0.9,0.8-1.5,1.1S371.6,172.1,370.6,172.1z M371.7,168.9c0.8,0,1.5-0.2,2.1-0.7
			c0.6-0.4,1-1,1.3-1.8c0.3-0.8,0.4-1.7,0.4-2.7s-0.1-2-0.4-2.7c-0.3-0.8-0.7-1.4-1.3-1.8c-0.6-0.4-1.3-0.6-2.1-0.6
			c-0.8,0-1.6,0.2-2.1,0.7s-1,1.1-1.3,1.8c-0.3,0.8-0.4,1.7-0.4,2.7c0,1,0.1,1.9,0.4,2.7c0.3,0.8,0.7,1.4,1.3,1.9
			S370.9,168.9,371.7,168.9z"/>
		<path d="M389.2,172.1c-1.6,0-2.9-0.3-4.1-1c-1.2-0.7-2.1-1.7-2.7-2.9c-0.6-1.2-1-2.7-1-4.4c0-1.7,0.3-3.1,1-4.4
			c0.6-1.3,1.5-2.2,2.7-2.9s2.5-1,4.1-1s2.9,0.3,4.1,1s2.1,1.7,2.7,2.9s1,2.7,1,4.4c0,1.7-0.3,3.1-1,4.4c-0.6,1.2-1.5,2.2-2.7,2.9
			C392.1,171.7,390.7,172.1,389.2,172.1z M389.2,169c0.9,0,1.6-0.2,2.1-0.7c0.6-0.5,1-1.1,1.3-1.9c0.3-0.8,0.4-1.7,0.4-2.7
			c0-1-0.1-1.9-0.4-2.7c-0.3-0.8-0.7-1.4-1.3-1.9s-1.3-0.7-2.1-0.7c-0.9,0-1.6,0.2-2.2,0.7s-1,1.1-1.3,1.9c-0.3,0.8-0.4,1.7-0.4,2.7
			c0,1,0.1,1.9,0.4,2.7c0.3,0.8,0.7,1.4,1.3,1.9C387.6,168.8,388.3,169,389.2,169z"/>
		<path d="M409.7,172.1c-1,0-1.9-0.2-2.8-0.6c-0.8-0.4-1.5-0.9-1.9-1.6c-0.5-0.7-0.7-1.6-0.7-2.7c0-0.9,0.2-1.7,0.5-2.3
			c0.3-0.6,0.8-1.1,1.4-1.4c0.6-0.4,1.2-0.6,2-0.8s1.5-0.3,2.3-0.4c0.9-0.1,1.7-0.2,2.3-0.3c0.6-0.1,1-0.2,1.3-0.4s0.4-0.4,0.4-0.8
			v-0.1c0-0.8-0.2-1.4-0.7-1.8c-0.5-0.4-1.1-0.7-2-0.7c-0.9,0-1.7,0.2-2.2,0.6s-0.9,0.9-1.1,1.4l-3.6-0.5c0.3-1,0.7-1.8,1.4-2.5
			c0.6-0.7,1.4-1.2,2.4-1.5s2-0.5,3.1-0.5c0.8,0,1.6,0.1,2.3,0.3c0.8,0.2,1.5,0.5,2.1,0.9c0.6,0.4,1.2,1,1.5,1.7
			c0.4,0.7,0.6,1.6,0.6,2.7v10.8h-3.7v-2.2h-0.1c-0.2,0.4-0.6,0.9-1,1.3c-0.4,0.4-0.9,0.7-1.6,0.9S410.6,172.1,409.7,172.1z
			 M410.7,169.3c0.8,0,1.4-0.2,2-0.5s1-0.7,1.3-1.2c0.3-0.5,0.5-1.1,0.5-1.7v-1.9c-0.1,0.1-0.3,0.2-0.6,0.3c-0.3,0.1-0.6,0.2-1,0.2
			c-0.4,0.1-0.7,0.1-1,0.2c-0.3,0-0.6,0.1-0.9,0.1c-0.6,0.1-1.1,0.2-1.5,0.4s-0.8,0.4-1.1,0.7c-0.3,0.3-0.4,0.7-0.4,1.2
			c0,0.7,0.3,1.2,0.8,1.6C409.3,169.1,409.9,169.3,410.7,169.3z"/>
		<path d="M427.9,172.1c-1.6,0-2.9-0.3-4.1-1c-1.2-0.7-2.1-1.7-2.7-2.9c-0.6-1.2-1-2.7-1-4.4c0-1.7,0.3-3.1,1-4.4
			c0.6-1.3,1.5-2.2,2.7-2.9s2.5-1,4.1-1s2.9,0.3,4.1,1s2.1,1.7,2.7,2.9s1,2.7,1,4.4c0,1.7-0.3,3.1-1,4.4c-0.6,1.2-1.5,2.2-2.7,2.9
			C430.9,171.7,429.5,172.1,427.9,172.1z M428,169c0.9,0,1.6-0.2,2.1-0.7c0.6-0.5,1-1.1,1.3-1.9c0.3-0.8,0.4-1.7,0.4-2.7
			c0-1-0.1-1.9-0.4-2.7c-0.3-0.8-0.7-1.4-1.3-1.9s-1.3-0.7-2.1-0.7c-0.9,0-1.6,0.2-2.2,0.7s-1,1.1-1.3,1.9c-0.3,0.8-0.4,1.7-0.4,2.7
			c0,1,0.1,1.9,0.4,2.7c0.3,0.8,0.7,1.4,1.3,1.9C426.4,168.8,427.1,169,428,169z"/>
		<path d="M461.7,150.3v21.5h-3.5l-10.1-14.7h-0.2v14.7H444v-21.5h3.5l10.1,14.7h0.2v-14.7H461.7z"/>
		<path d="M471.8,172.1c-1.6,0-3-0.3-4.2-1c-1.2-0.7-2.1-1.6-2.7-2.9c-0.6-1.2-0.9-2.7-0.9-4.4c0-1.7,0.3-3.1,1-4.4
			c0.6-1.3,1.5-2.2,2.7-2.9c1.1-0.7,2.5-1.1,4-1.1c1,0,1.9,0.2,2.8,0.5c0.9,0.3,1.7,0.8,2.4,1.5c0.7,0.7,1.2,1.5,1.6,2.5
			c0.4,1,0.6,2.2,0.6,3.7v1.2h-13.2v-2.6h9.6c0-0.7-0.2-1.4-0.5-1.9c-0.3-0.6-0.7-1-1.3-1.4s-1.2-0.5-1.9-0.5c-0.8,0-1.5,0.2-2,0.6
			c-0.6,0.4-1,0.9-1.4,1.5c-0.3,0.6-0.5,1.3-0.5,2v2.2c0,0.9,0.2,1.7,0.5,2.4c0.3,0.7,0.8,1.2,1.4,1.5c0.6,0.4,1.3,0.5,2.2,0.5
			c0.6,0,1.1-0.1,1.5-0.2c0.4-0.2,0.8-0.4,1.2-0.7c0.3-0.3,0.6-0.7,0.7-1.1l3.6,0.4c-0.2,0.9-0.7,1.8-1.3,2.5s-1.4,1.2-2.4,1.6
			S473,172.1,471.8,172.1z"/>
		<path d="M483.8,155.6l3.3,6l3.3-6h4l-4.9,8.1l5,8.1h-4L487,166l-3.4,5.8h-4l4.9-8.1l-4.8-8.1H483.8z"/>
		<path d="M504.2,155.6v2.9h-9.3v-2.9H504.2z M497.2,151.8h3.8v15.2c0,0.5,0.1,0.9,0.2,1.2c0.2,0.3,0.4,0.5,0.6,0.6
			c0.3,0.1,0.5,0.1,0.9,0.1c0.2,0,0.5,0,0.7-0.1c0.2,0,0.4-0.1,0.5-0.1l0.6,3c-0.2,0.1-0.5,0.1-0.9,0.2c-0.4,0.1-0.8,0.1-1.4,0.1
			c-1,0-1.8-0.1-2.6-0.4c-0.8-0.3-1.4-0.8-1.8-1.5c-0.4-0.7-0.7-1.5-0.7-2.5V151.8z"/>
		<path d="M508.5,172c-0.6,0-1.2-0.2-1.6-0.7c-0.5-0.4-0.7-1-0.7-1.6c0-0.6,0.2-1.2,0.7-1.6c0.5-0.4,1-0.7,1.6-0.7
			c0.6,0,1.2,0.2,1.6,0.7c0.5,0.4,0.7,1,0.7,1.6c0,0.4-0.1,0.8-0.3,1.2s-0.5,0.6-0.8,0.8C509.3,171.9,508.9,172,508.5,172z"/>
		<path d="M522.3,150.3h3.9v15.1c0,1.4-0.3,2.6-0.9,3.6c-0.6,1-1.4,1.8-2.4,2.3c-1,0.5-2.3,0.8-3.6,0.8c-1.3,0-2.4-0.2-3.4-0.7
			c-1-0.5-1.8-1.1-2.4-2c-0.6-0.9-0.9-2-0.9-3.3h3.9c0,0.6,0.1,1.1,0.4,1.5c0.2,0.4,0.6,0.7,1,1c0.4,0.2,1,0.3,1.5,0.3
			c0.6,0,1.2-0.1,1.6-0.4s0.8-0.7,1-1.2c0.2-0.5,0.3-1.2,0.4-1.9V150.3z"/>
		<path d="M540.9,156.2c-0.1-0.9-0.5-1.6-1.2-2.1c-0.7-0.5-1.7-0.8-2.8-0.8c-0.8,0-1.5,0.1-2.1,0.4c-0.6,0.2-1,0.6-1.3,1
			c-0.3,0.4-0.5,0.9-0.5,1.4c0,0.4,0.1,0.8,0.3,1.2c0.2,0.3,0.5,0.6,0.8,0.8s0.8,0.4,1.2,0.6s0.9,0.3,1.3,0.4l2,0.5
			c0.8,0.2,1.6,0.4,2.3,0.8s1.4,0.7,2,1.2c0.6,0.5,1.1,1.1,1.4,1.8s0.5,1.5,0.5,2.4c0,1.3-0.3,2.4-1,3.3s-1.6,1.7-2.8,2.2
			s-2.7,0.8-4.4,0.8c-1.7,0-3.1-0.3-4.4-0.8c-1.2-0.5-2.2-1.3-2.9-2.3c-0.7-1-1.1-2.2-1.1-3.6h3.8c0.1,0.8,0.3,1.4,0.7,1.9
			c0.4,0.5,0.9,0.9,1.6,1.1c0.7,0.2,1.4,0.4,2.2,0.4c0.8,0,1.6-0.1,2.2-0.4c0.6-0.3,1.1-0.6,1.5-1.1s0.5-1,0.6-1.6
			c0-0.6-0.2-1-0.5-1.4c-0.3-0.4-0.8-0.7-1.4-0.9c-0.6-0.2-1.3-0.5-2-0.7l-2.4-0.6c-1.8-0.5-3.2-1.1-4.2-2.1s-1.5-2.2-1.5-3.7
			c0-1.3,0.3-2.4,1-3.3c0.7-1,1.6-1.7,2.8-2.2s2.5-0.8,4-0.8c1.5,0,2.9,0.3,4,0.8s2.1,1.3,2.7,2.2c0.7,0.9,1,2,1,3.2H540.9z"/>
	</g>
</g>
</svg>
