<svg width="5522" height="5522" viewBox="0 0 5522 5522" fill="none" xmlns="http://www.w3.org/2000/svg">
<path d="M1815.36 2089.79H1799.9V2105.25V3386.53V3401.99H1815.36H2680.3H2685.66H2695.76H2715.98H2808.72H2816.61L2821.25 3395.59L3242.06 2813.58L3661.08 3395.57L3665.72 3401.99H3673.63H3768.15H3798.34L3780.7 3377.49L3312.69 2727.73L4227.08 1398.29L4202.18 1380L3641.86 2095.72L3641.7 2095.92L3641.55 2096.13L3242.22 2642.34L2851.6 2096.26L2846.98 2089.79H2839.03H2756.04H2748.09H2748.06V2105.25V2105.27L2735.53 2114.25L3174.87 2727.87L2703.47 3377.46L2695.76 3388.08V3386.53V3318.32V3302.86H2680.3H1909.3V2770.32H2625.02H2640.48V2754.86V2686.66V2671.2H2625.02H1909.3V2188.9H2671.39H2686.85V2173.45V2105.25V2089.79H2671.39H1815.36ZM3786.61 2173.45V2188.9H3802.07H3802.09H4234.21V3386.5V3401.95H4249.66H4328.15H4343.61V3386.5V2188.9H4777.54H4793V2173.45V2105.25V2089.79H4777.54H3802.07H3786.61V2105.25V2173.45ZM744.457 2089.79H729V2105.25V3386.53V3401.99H744.457H822.914H838.325L838.371 3386.59L841.786 2251.93L1623.37 3395.26L1623.56 3395.53L1623.76 3395.79L2182.7 4143L2207.94 4125.16L855.412 2096.67L850.823 2089.79H842.552H744.457Z" fill="white" stroke="white" stroke-width="17"/>
<circle cx="2761" cy="2761" r="2691" stroke="white" stroke-width="140"/>
</svg>
